<svg width="24" height="24" viewBox="0 0 24 24" fill="none" xmlns="http://www.w3.org/2000/svg">
<path opacity="0.4" d="M20.4788 14.0741L20.4788 14.074L20.4741 14.0788C19.8428 14.7186 18.9088 15.1 17.75 15.1H17.25V15.6V17.41C17.25 17.6983 16.9309 17.8557 16.7107 17.7063L16.7108 17.7062L16.7054 17.7027L16.025 17.2537C16.0702 16.999 16.09 16.7361 16.09 16.47V12.4C16.09 11.2664 15.7099 10.2829 15.0086 9.58146C14.3072 8.88006 13.3236 8.5 12.19 8.5H5.5V6.25C5.5 5.08862 5.88494 4.15966 6.5223 3.5223C7.15966 2.88494 8.08862 2.5 9.25 2.5H17.75C18.9114 2.5 19.8403 2.88494 20.4777 3.5223C21.1151 4.15966 21.5 5.08862 21.5 6.25V11.35C21.5 12.5088 21.1186 13.4428 20.4788 14.0741Z" fill="#91A5C4" stroke="#91A5C4"/>
<path d="M14.9798 17.3406L14.9773 17.3492L14.9751 17.3579C14.6665 18.5841 13.664 19.37 12.19 19.37H9.47H9.31882L9.19297 19.4538L6.17296 21.4638L6.17293 21.4637L6.16634 21.4683C6.06086 21.5409 5.89999 21.4728 5.89999 21.32V19.87V19.37H5.39999C4.493 19.37 3.77678 19.0697 3.29356 18.5864C2.79956 18.0925 2.5 17.3757 2.5 16.47V12.4C2.5 11.5553 2.76075 10.8764 3.19077 10.3939C3.61939 9.91302 4.2461 9.59348 5.04255 9.51822C5.17296 9.5082 5.28332 9.5 5.39999 9.5H12.19C13.0964 9.5 13.8128 9.79995 14.3014 10.2886C14.7901 10.7772 15.09 11.4936 15.09 12.4V16.47C15.09 16.7942 15.0538 17.0857 14.9798 17.3406Z" fill="#91A5C4" stroke="#91A5C4"/>
</svg>
