<svg width="24" height="24" viewBox="0 0 24 24" fill="none" xmlns="http://www.w3.org/2000/svg">
<path opacity="0.4" d="M18.9116 14.748L18.913 14.7502C19.2233 15.2594 19.2775 15.8584 19.0721 16.4037C18.8637 16.9566 18.4355 17.3737 17.8839 17.555L17.8839 17.555L17.8811 17.5559C15.9942 18.1881 14.0079 18.5 12.0199 18.5C10.032 18.5 8.04657 18.1881 6.16098 17.5466L6.15998 17.5463C5.54292 17.3378 5.10185 16.9172 4.92065 16.4114L4.92067 16.4114L4.91923 16.4075C4.7272 15.8851 4.78757 15.3025 5.11856 14.7475C5.11879 14.7471 5.11902 14.7467 5.11925 14.7463L6.12778 13.0787L6.12784 13.0788L6.13183 13.0719C6.2675 12.8393 6.38148 12.5281 6.46118 12.2349C6.54078 11.9421 6.59994 11.6169 6.59994 11.35V8.81999C6.59994 5.83559 9.02664 3.39999 12.0199 3.39999C15.0133 3.39999 17.4399 5.83559 17.4399 8.81999V11.35C17.4399 11.6169 17.4991 11.9421 17.5786 12.2356C17.6583 12.5303 17.7717 12.8417 17.9051 13.0768L17.905 13.0769L17.9117 13.088L18.9116 14.748Z" fill="#91A5C4" stroke="#91A5C4"/>
<mask id="path-2-inside-1_1518_9559" fill="white">
<path d="M14.25 3.32C13.56 3.05 12.81 2.9 12.02 2.9C11.24 2.9 10.49 3.04 9.80005 3.32C10.23 2.51 11.08 2 12.02 2C12.97 2 13.81 2.51 14.25 3.32Z"/>
</mask>
<path d="M14.25 3.32C13.56 3.05 12.81 2.9 12.02 2.9C11.24 2.9 10.49 3.04 9.80005 3.32C10.23 2.51 11.08 2 12.02 2C12.97 2 13.81 2.51 14.25 3.32Z" fill="#91A5C4"/>
<path d="M14.25 3.32L13.8856 4.25124L16.436 5.24922L15.1288 2.84267L14.25 3.32ZM9.80005 3.32L8.91679 2.85111L7.6268 5.2811L10.1761 4.24661L9.80005 3.32ZM14.6144 2.38876C13.8115 2.07456 12.9381 1.9 12.02 1.9V3.9C12.682 3.9 13.3086 4.02544 13.8856 4.25124L14.6144 2.38876ZM12.02 1.9C11.12 1.9 10.2414 2.06171 9.42403 2.39339L10.1761 4.24661C10.7387 4.01829 11.3601 3.9 12.02 3.9V1.9ZM10.6833 3.78889C10.937 3.31096 11.4441 3 12.02 3V1C10.716 1 9.52308 1.70904 8.91679 2.85111L10.6833 3.78889ZM12.02 3C12.602 3 13.1056 3.30814 13.3713 3.79733L15.1288 2.84267C14.5145 1.71186 13.3381 1 12.02 1V3Z" fill="#91A5C4" mask="url(#path-2-inside-1_1518_9559)"/>
<path d="M10.0956 20.6143C10.146 20.6193 10.1967 20.6239 10.2474 20.6282C10.829 20.6792 11.4234 20.71 12.0201 20.71C12.6074 20.71 13.1924 20.6791 13.7645 20.628L13.7645 20.628L13.7675 20.6277C13.8104 20.6237 13.8581 20.6197 13.9086 20.6156C13.4474 21.1572 12.7621 21.5 12.0001 21.5C11.3411 21.5 10.6925 21.2319 10.2399 20.7628L10.2312 20.7538L10.222 20.7452C10.1782 20.7042 10.1361 20.6604 10.0956 20.6143Z" fill="#91A5C4" stroke="#91A5C4"/>
</svg>
