<svg width="24" height="24" viewBox="0 0 24 24" fill="none" xmlns="http://www.w3.org/2000/svg">
<path d="M17.5 20.75C17.5 21.4404 16.9404 22 16.25 22C15.5596 22 15 21.4404 15 20.75C15 20.0596 15.5596 19.5 16.25 19.5C16.9404 19.5 17.5 20.0596 17.5 20.75Z" fill="#91A5C4" stroke="#91A5C4"/>
<path d="M9.5 20.75C9.5 21.4404 8.94036 22 8.25 22C7.55964 22 7 21.4404 7 20.75C7 20.0596 7.55964 19.5 8.25 19.5C8.94036 19.5 9.5 20.0596 9.5 20.75Z" fill="#91A5C4" stroke="#91A5C4"/>
<path opacity="0.4" d="M5.33834 3.98068L5.33841 3.98069L5.33896 3.97219C5.36732 3.53253 5.22483 3.09756 4.91925 2.76287L4.91934 2.76279L4.91168 2.75477C4.61094 2.43971 4.19178 2.25 3.74001 2.25H2C1.86614 2.25 1.75 2.13386 1.75 2C1.75 1.86614 1.86614 1.75 2 1.75H3.77C4.34685 1.75 4.91269 1.99881 5.30922 2.42551C5.55579 2.70535 5.71941 3.04554 5.80243 3.41081L5.89088 3.8H6.28999H18.56C20.0416 3.8 21.1599 4.9953 21.0513 6.47337L21.0513 6.47437C21.0403 6.62815 20.9123 6.75 20.75 6.75H5.44C5.25356 6.75 5.12382 6.60139 5.1382 6.4324L5.13834 6.43068L5.33834 3.98068Z" fill="#91A5C4" stroke="#91A5C4"/>
<path d="M20.8019 9.55669L20.8019 9.55668L20.8013 9.56476L20.4714 14.2334C20.4714 14.2336 20.4714 14.2339 20.4714 14.2341C20.3801 15.4737 19.2767 16.5 18.0401 16.5H6.92006C5.50516 16.5 4.39224 15.2825 4.50835 13.8712C4.50836 13.8712 4.50836 13.8711 4.50837 13.871L4.86798 9.52572C4.8849 9.3665 5.01507 9.25 5.17006 9.25H20.5101C20.6925 9.25 20.8161 9.39444 20.8019 9.55669Z" fill="#91A5C4" stroke="#91A5C4"/>
</svg>
