<svg width="74" height="73" viewBox="0 0 74 73" fill="none" xmlns="http://www.w3.org/2000/svg">
<g filter="url(#filter0_d_272_21814)">
<rect x="2" y="1" width="70" height="69" rx="10" fill="#1F2A37"/>
<path d="M37 33C42.5 33 47 28.5 47 23C47 17.5 42.5 13 37 13C31.5 13 27 17.5 27 23C27 28.5 31.5 33 37 33Z" stroke="white" stroke-width="1.5" stroke-linecap="round" stroke-linejoin="round"/>
<path d="M34.17 25.83L39.83 20.17M39.83 25.83L34.17 20.17" stroke="white" stroke-width="1.5" stroke-linecap="round" stroke-linejoin="round"/>
<path d="M27.6056 50.1293H26.0544C25.9948 49.7978 25.8837 49.5062 25.7213 49.2543C25.5589 49.0024 25.3601 48.7886 25.1247 48.6129C24.8894 48.4373 24.6259 48.3047 24.3343 48.2152C24.0459 48.1257 23.7393 48.081 23.4145 48.081C22.8279 48.081 22.3025 48.2285 21.8385 48.5234C21.3778 48.8184 21.0132 49.2509 20.7448 49.821C20.4796 50.3911 20.347 51.0871 20.347 51.9091C20.347 52.7377 20.4796 53.437 20.7448 54.0071C21.0132 54.5772 21.3795 55.008 21.8435 55.2997C22.3075 55.5914 22.8295 55.7372 23.4095 55.7372C23.731 55.7372 24.036 55.6941 24.3243 55.608C24.616 55.5185 24.8795 55.3875 25.1148 55.2152C25.3501 55.0429 25.549 54.8324 25.7114 54.5838C25.8771 54.3319 25.9914 54.0436 26.0544 53.7188L27.6056 53.7237C27.5227 54.2242 27.362 54.6849 27.1233 55.1058C26.888 55.5234 26.5847 55.8847 26.2135 56.1896C25.8456 56.4912 25.4247 56.7249 24.9507 56.8906C24.4768 57.0563 23.9597 57.1392 23.3996 57.1392C22.518 57.1392 21.7325 56.9304 21.0431 56.5128C20.3537 56.0919 19.8101 55.4903 19.4124 54.7081C19.018 53.9259 18.8208 52.9929 18.8208 51.9091C18.8208 50.822 19.0196 49.889 19.4173 49.1101C19.8151 48.3279 20.3586 47.728 21.048 47.3104C21.7374 46.8894 22.5213 46.679 23.3996 46.679C23.9398 46.679 24.4436 46.7569 24.911 46.9126C25.3816 47.0651 25.8042 47.2905 26.1787 47.5888C26.5532 47.8838 26.8631 48.245 27.1084 48.6726C27.3537 49.0968 27.5194 49.5824 27.6056 50.1293ZM30.811 46.8182V57H29.3245V46.8182H30.811ZM36.0274 57.1541C35.3115 57.1541 34.6868 56.9901 34.1531 56.6619C33.6195 56.3338 33.2052 55.8748 32.9102 55.2848C32.6153 54.6948 32.4678 54.0054 32.4678 53.2166C32.4678 52.4245 32.6153 51.7318 32.9102 51.1385C33.2052 50.5452 33.6195 50.0845 34.1531 49.7564C34.6868 49.4283 35.3115 49.2642 36.0274 49.2642C36.7433 49.2642 37.3681 49.4283 37.9017 49.7564C38.4353 50.0845 38.8496 50.5452 39.1446 51.1385C39.4396 51.7318 39.5871 52.4245 39.5871 53.2166C39.5871 54.0054 39.4396 54.6948 39.1446 55.2848C38.8496 55.8748 38.4353 56.3338 37.9017 56.6619C37.3681 56.9901 36.7433 57.1541 36.0274 57.1541ZM36.0324 55.9062C36.4964 55.9062 36.8809 55.7836 37.1858 55.5384C37.4907 55.2931 37.7161 54.9666 37.8619 54.5589C38.0111 54.1513 38.0857 53.7022 38.0857 53.2116C38.0857 52.7244 38.0111 52.277 37.8619 51.8693C37.7161 51.4583 37.4907 51.1286 37.1858 50.88C36.8809 50.6314 36.4964 50.5071 36.0324 50.5071C35.5651 50.5071 35.1773 50.6314 34.8691 50.88C34.5641 51.1286 34.3371 51.4583 34.1879 51.8693C34.0421 52.277 33.9692 52.7244 33.9692 53.2116C33.9692 53.7022 34.0421 54.1513 34.1879 54.5589C34.3371 54.9666 34.5641 55.2931 34.8691 55.5384C35.1773 55.7836 35.5651 55.9062 36.0324 55.9062ZM46.9687 51.228L45.6214 51.4666C45.565 51.2943 45.4755 51.1302 45.3529 50.9744C45.2336 50.8187 45.0712 50.6911 44.8657 50.5916C44.6602 50.4922 44.4033 50.4425 44.0951 50.4425C43.6742 50.4425 43.3228 50.5369 43.0411 50.7259C42.7594 50.9115 42.6185 51.1518 42.6185 51.4467C42.6185 51.7019 42.713 51.9074 42.9019 52.0632C43.0908 52.219 43.3957 52.3466 43.8167 52.446L45.0297 52.7244C45.7324 52.8868 46.2561 53.1371 46.6008 53.4751C46.9455 53.8132 47.1178 54.2524 47.1178 54.7926C47.1178 55.25 46.9852 55.6577 46.7201 56.0156C46.4582 56.3703 46.092 56.6487 45.6214 56.8509C45.154 57.053 44.6121 57.1541 43.9956 57.1541C43.1405 57.1541 42.4429 56.9718 41.9026 56.6072C41.3624 56.2393 41.0309 55.7173 40.9083 55.0412L42.3451 54.8224C42.4346 55.197 42.6185 55.4804 42.8969 55.6726C43.1753 55.8615 43.5383 55.956 43.9857 55.956C44.4729 55.956 44.8624 55.8549 45.154 55.6527C45.4457 55.4472 45.5915 55.197 45.5915 54.902C45.5915 54.6634 45.502 54.4628 45.3231 54.3004C45.1474 54.138 44.8773 54.0154 44.5127 53.9325L43.2201 53.6491C42.5075 53.4867 41.9805 53.2282 41.6391 52.8736C41.301 52.5189 41.132 52.0698 41.132 51.5263C41.132 51.0755 41.258 50.6811 41.5099 50.343C41.7617 50.005 42.1098 49.7415 42.5539 49.5526C42.998 49.3603 43.5068 49.2642 44.0802 49.2642C44.9055 49.2642 45.5551 49.4432 46.029 49.8011C46.503 50.1558 46.8162 50.6314 46.9687 51.228ZM52.0434 57.1541C51.291 57.1541 50.6431 56.9934 50.0995 56.6719C49.5593 56.3471 49.1417 55.8913 48.8467 55.3047C48.555 54.7147 48.4092 54.0237 48.4092 53.2315C48.4092 52.4493 48.555 51.7599 48.8467 51.1634C49.1417 50.5668 49.5526 50.1011 50.0796 49.7663C50.6099 49.4316 51.2297 49.2642 51.939 49.2642C52.3699 49.2642 52.7875 49.3355 53.1919 49.478C53.5962 49.6205 53.9591 49.8442 54.2806 50.1491C54.6021 50.4541 54.8557 50.8501 55.0413 51.3374C55.2269 51.8213 55.3197 52.4096 55.3197 53.1023V53.6293H49.2494V52.5156H53.863C53.863 52.1245 53.7835 51.7782 53.6244 51.4766C53.4653 51.1716 53.2416 50.9313 52.9532 50.7557C52.6682 50.58 52.3334 50.4922 51.949 50.4922C51.5313 50.4922 51.1668 50.5949 50.8552 50.8004C50.547 51.0026 50.3083 51.2678 50.1393 51.5959C49.9736 51.9207 49.8907 52.2737 49.8907 52.6548V53.5249C49.8907 54.0353 49.9802 54.4695 50.1592 54.8274C50.3415 55.1854 50.595 55.4588 50.9198 55.6477C51.2446 55.8333 51.6241 55.9261 52.0583 55.9261C52.3401 55.9261 52.5969 55.8864 52.8289 55.8068C53.0609 55.724 53.2615 55.6013 53.4305 55.4389C53.5995 55.2765 53.7288 55.076 53.8183 54.8374L55.2252 55.0909C55.1125 55.5052 54.9104 55.8681 54.6187 56.1797C54.3303 56.4879 53.9674 56.7282 53.5299 56.9006C53.0957 57.0696 52.6002 57.1541 52.0434 57.1541Z" fill="white"/>
</g>
<defs>
<filter id="filter0_d_272_21814" x="0" y="0" width="74" height="73" filterUnits="userSpaceOnUse" color-interpolation-filters="sRGB">
<feFlood flood-opacity="0" result="BackgroundImageFix"/>
<feColorMatrix in="SourceAlpha" type="matrix" values="0 0 0 0 0 0 0 0 0 0 0 0 0 0 0 0 0 0 127 0" result="hardAlpha"/>
<feOffset dy="1"/>
<feGaussianBlur stdDeviation="1"/>
<feColorMatrix type="matrix" values="0 0 0 0 0 0 0 0 0 0 0 0 0 0 0 0 0 0 0.08 0"/>
<feBlend mode="normal" in2="BackgroundImageFix" result="effect1_dropShadow_272_21814"/>
<feBlend mode="normal" in="SourceGraphic" in2="effect1_dropShadow_272_21814" result="shape"/>
</filter>
</defs>
</svg>
