<svg width="199" height="64" viewBox="0 0 199 64" fill="none" xmlns="http://www.w3.org/2000/svg">
<g clip-path="url(#clip0_291_26223)">
<path d="M48.2368 22.3999C47.998 20.5599 47.4408 18.7999 46.6448 17.1999C46.0876 16.0799 45.3712 15.0399 44.416 14.2399C43.222 13.1999 41.7096 12.6399 40.1176 12.6399C39.4012 12.6399 38.6848 12.7199 37.9684 12.9599L40.038 8.47995L40.2768 7.91995L39.7992 7.67995L35.7396 4.79995L35.5804 4.63995H32.1576C31.4412 4.47995 30.7248 4.15995 30.1676 3.67995C28.2572 2.15995 25.9488 1.35995 23.4812 1.35995C21.0136 1.27995 18.6256 2.07995 16.7152 3.75995L9.71042 10.6399L9.55122 10.7999L5.49162 14.7999C4.77522 15.5199 4.21802 16.3199 3.82002 17.2799C3.02402 18.9599 2.46682 20.6399 2.22802 22.4799C1.43202 26.7199 1.59122 31.0399 2.62602 35.1999C3.82002 39.5999 5.88962 43.6799 8.67562 47.2799C12.576 52.2399 17.5112 56.3999 23.0832 59.5999L24.8344 60.6399L25.2324 60.8799L25.6304 60.6399L27.3816 59.5999C32.9536 56.3999 37.8092 52.1599 41.8688 47.1999C44.6548 43.5999 46.7244 39.5199 47.9184 35.1199C48.794 30.9599 48.9532 26.6399 48.2368 22.3999Z" fill="white"/>
<path d="M21.8104 17.7598H15.522L14.9648 27.2798C15.2832 27.3598 15.6812 27.4398 15.9996 27.5998L21.8104 17.7598Z" fill="black"/>
<path d="M16.9548 39.3599L16.8752 40.1599L17.1936 40.3199C17.8304 40.5599 18.4672 40.7199 19.1836 40.6399C19.9 40.6399 20.6164 40.5599 21.2532 40.2399V39.4399C20.6164 39.7599 19.9 39.9199 19.1836 39.9199C18.5468 39.9199 17.8304 39.7599 17.1936 39.5199L16.9548 39.3599Z" fill="black"/>
<path d="M17.1936 42.3202L16.9548 42.1602H16.8752V42.9602L17.1936 43.1202C17.8304 43.3602 18.4672 43.5202 19.1836 43.4402C19.7408 43.4402 20.298 43.3602 20.7756 43.2002V42.4802C20.298 42.6402 19.7408 42.7202 19.1836 42.7202C18.4672 42.8002 17.7508 42.6402 17.1936 42.3202Z" fill="black"/>
<path d="M17.1936 45.12L16.9548 44.96H16.8752V45.76L17.1936 45.92C17.8304 46.16 18.4672 46.24 19.104 46.24C19.4224 46.24 19.7408 46.24 20.0592 46.16V45.44C19.7408 45.52 19.4224 45.52 19.104 45.52C18.4672 45.6 17.7508 45.44 17.1936 45.12Z" fill="black"/>
<path d="M24.2771 4.64002C24.8343 4.72002 25.3119 4.96002 25.7895 5.20002C26.2671 5.44002 26.7447 5.76002 27.1427 6.08002C27.7795 6.64002 28.4959 7.12002 29.2123 7.52002V6.32002C28.6551 6.00002 28.1775 5.68002 27.6203 5.36002C27.1427 5.04002 26.5855 4.80002 26.1079 4.56002C25.5507 4.32002 24.9935 4.16002 24.4363 4.08002C23.8791 4.00002 23.3219 4.00002 22.6851 4.08002H22.6055V4.56002H22.6851C23.1627 4.48002 23.7199 4.56002 24.2771 4.64002Z" fill="black"/>
<path d="M47.5218 22.5601C47.283 20.8001 46.7258 19.1201 46.0094 17.5201C45.5318 16.4801 44.8154 15.5201 43.9398 14.8001C42.905 13.9201 41.4722 13.3601 40.119 13.3601C38.2882 13.3601 36.537 14.0801 35.2634 15.3601L33.1938 13.1201L33.5122 12.4001H36.3778L36.0594 13.1201H37.1738L39.4026 8.24012L35.343 5.36012H32.159C31.2834 5.20012 30.4078 4.80012 29.771 4.24012C28.0198 2.80012 25.791 2.00012 23.4826 2.00012C21.1742 1.84012 18.9454 2.64012 17.1942 4.16012L9.95062 11.2801L5.89102 15.2801C5.25422 15.9201 4.69702 16.7201 4.29902 17.5201C3.58262 19.1201 3.02542 20.8001 2.78662 22.5601C1.99062 26.6401 2.14982 30.8801 3.18462 34.9601C4.37862 39.2801 6.36862 43.2801 9.15462 46.8001C13.1346 51.7601 17.9902 55.9201 23.4826 59.0401L25.2338 60.0801L26.985 59.0401C32.4774 55.8401 37.333 51.6801 41.313 46.8001C44.0194 43.2801 46.0094 39.2801 47.2034 34.9601C48.1586 30.8801 48.3178 26.6401 47.5218 22.5601ZM17.831 4.88012C18.3086 4.40012 19.9006 2.96012 23.403 2.96012C25.4726 2.96012 27.5422 3.68012 29.1342 5.04012C30.169 5.76012 31.0446 6.32012 32.159 6.32012H35.0246L38.2086 8.56012L36.935 11.3601H34.0694C33.6714 11.3601 33.2734 11.2001 32.955 10.8801C32.557 10.4801 32.3182 10.0001 32.2386 9.44012H31.761C31.761 9.76012 31.761 10.1601 31.9202 10.4801C31.9998 10.8001 32.2386 11.1201 32.4774 11.4401C32.557 11.6001 32.7162 11.6801 32.8754 11.7601L32.159 13.2801L34.0694 15.3601H32.6366L30.0894 13.2001H29.5322L31.363 15.3601H27.6218L25.4726 13.2001H24.199C24.4378 12.6401 24.597 12.0001 24.597 11.3601C24.597 11.2801 24.597 11.1201 24.597 11.0401V10.7201V10.5601V10.4001L24.5174 10.0801C24.4378 9.60012 24.2786 9.20012 24.0398 8.80012C23.801 8.40012 23.5622 8.00012 23.2438 7.68012L23.1642 7.60012L23.005 7.52012L22.7662 7.28012C22.607 7.12012 22.3682 7.04012 22.209 6.88012C21.413 6.40012 20.6966 6.16012 19.9802 6.08012C19.821 6.08012 19.5822 6.08012 19.3434 6.08012V6.56012C20.1394 6.56012 20.9354 6.80012 21.5722 7.28012C21.7314 7.36012 21.8906 7.52012 22.0498 7.60012L22.2886 7.84012L22.3682 7.92012L22.4478 8.00012C22.6866 8.32012 22.9254 8.64012 23.0846 8.96012C23.2438 9.28012 23.403 9.68012 23.4826 10.0801V10.4001V10.5601V11.0401C23.4826 11.1201 23.4826 11.2001 23.4826 11.3601C23.403 12.1601 23.1642 12.8801 22.6866 13.4401L22.1294 14.2401H24.8358L26.0298 15.4401H14.8858V11.2801H11.3038L17.831 4.88012ZM12.8162 19.3601C12.4182 20.8801 11.1446 22.0001 9.63222 22.1601H9.23422C7.32382 22.1601 5.65222 20.6401 5.49302 18.7201C5.49302 18.6401 5.49302 18.5601 5.49302 18.4801C5.49302 17.4401 5.89102 16.4801 6.68702 15.7601L10.269 12.2401H13.851V15.7601L12.8162 19.3601ZM46.1686 34.7201C45.4522 37.2001 44.497 39.6801 43.2234 41.9201L42.9846 42.2401L42.8254 42.4801L42.5866 42.8001L42.4274 43.2001L42.2682 43.5201L41.8702 44.0801L41.711 44.3201L41.3926 44.7201L41.2334 44.9601L40.915 45.3601L40.7558 45.5201L40.2782 46.1601L39.8802 46.7201C38.2086 48.8001 36.2982 50.8001 34.2286 52.5601C32.557 54.0001 30.8854 55.2801 29.0546 56.4801C28.179 57.0401 27.2238 57.6801 26.2686 58.2401L25.0746 58.9601L23.8806 58.2401C18.5474 55.1201 13.7714 51.0401 9.87102 46.2401L9.55262 45.8401L9.39342 45.6001L9.07502 45.1201L8.91582 44.8001L8.51782 44.2401L8.43822 44.1601L8.04022 43.5201C6.28902 40.8001 4.93582 37.8401 4.13982 34.7201C3.18462 30.8001 3.02542 26.7201 3.74182 22.7201C3.90102 21.5201 4.21942 20.3201 4.61742 19.2001C4.69702 19.9201 5.01542 20.6401 5.41342 21.2001C5.25422 21.7601 5.17462 22.3201 5.01542 22.9601C4.85622 23.9201 4.69702 24.9601 4.69702 25.9201L11.2242 28.9601C11.3038 28.8001 11.463 28.6401 11.6222 28.4801C11.7018 28.4001 11.861 28.2401 11.9406 28.1601L7.96062 22.9601C8.67702 23.1201 9.39342 23.2001 10.1098 23.0401L12.8162 27.5201C13.1346 27.3601 13.453 27.2801 13.851 27.2001L13.453 20.4801C13.6122 20.1601 13.6918 19.9201 13.7714 19.6001L14.7266 16.4001V16.3201H35.741L35.9002 16.1601C37.0146 14.9601 38.527 14.3201 40.119 14.4001C41.313 14.4001 42.4274 14.8001 43.303 15.6001C44.099 16.2401 44.6562 17.1201 45.1338 18.0001C45.8502 19.5201 46.3278 21.1201 46.5666 22.7201C47.283 26.7201 47.1238 30.8001 46.1686 34.7201Z" fill="black"/>
<path d="M35.1842 8.87977C35.4919 8.87977 35.7414 8.62904 35.7414 8.31977C35.7414 8.01049 35.4919 7.75977 35.1842 7.75977C34.8764 7.75977 34.627 8.01049 34.627 8.31977C34.627 8.62904 34.8764 8.87977 35.1842 8.87977Z" fill="black"/>
<path d="M32.1592 8.64027C32.2388 8.24027 32.5572 7.92027 32.9552 7.84027V7.28027H31.6816V8.64027H32.1592Z" fill="black"/>
<path d="M45.2132 22.9599C44.656 19.6799 43.3028 15.7599 40.1188 15.7599C38.6064 15.6799 37.1736 16.4799 36.4572 17.7599H24.8356L16.8756 28.1599C16.9552 28.2399 17.0348 28.3199 17.194 28.3999C17.3532 28.5599 17.5124 28.7999 17.592 28.9599L23.3232 26.3199L22.8456 28.3999L18.0696 29.9199C18.1492 30.2399 18.2288 30.6399 18.2288 31.0399C18.0696 31.0399 17.9104 30.9599 17.7512 30.8799C17.592 30.7999 17.4328 30.7199 17.2736 30.7199L17.0348 30.6399L16.5572 30.3999C16.1592 30.2399 15.7612 30.0799 15.3632 30.0799H15.1244H14.806H14.01H13.6916H13.4528C13.0548 30.1599 12.6568 30.2399 12.2588 30.3999L11.7812 30.6399L11.5424 30.7199C11.3832 30.7999 11.224 30.8799 11.0648 30.8799C10.9056 30.9599 10.7464 30.9599 10.5872 31.0399C10.5872 30.6399 10.6668 30.2399 10.7464 29.9199L4.61719 27.9199C4.61719 28.6399 4.61719 29.3599 4.69679 30.0799C4.69679 30.1599 4.69679 30.2399 4.69679 30.3199C4.69679 30.3999 4.69679 30.6399 4.69679 30.7999C4.69679 30.8799 4.69679 31.0399 4.69679 31.1199H5.33359L5.73159 31.1999C6.12959 31.2799 6.60719 31.4399 6.92559 31.6799C7.72159 32.0799 8.59719 32.3199 9.47279 32.3199C10.3484 32.3199 11.224 32.1599 12.02 31.6799C12.1792 31.5999 12.418 31.5199 12.5772 31.4399C12.9752 31.2799 13.4528 31.1999 13.9304 31.1999H14.4876C14.8856 31.1999 15.3632 31.2799 15.7612 31.4399C16 31.5199 16.1592 31.5999 16.398 31.6799C17.194 32.0799 18.0696 32.3199 18.9452 32.3199C19.8208 32.3199 20.6964 32.1599 21.4924 31.6799L21.8904 31.5199L21.6516 32.4799L22.5272 32.3199L22.2884 33.3599C21.8108 33.4399 21.4128 33.5999 21.0148 33.8399C20.2984 34.2399 19.582 34.3999 18.786 34.3999C17.99 34.3999 17.2736 34.2399 16.5572 33.8399C15.7612 33.4399 14.8856 33.1999 14.01 33.1999C13.1344 33.1999 12.2588 33.3599 11.4628 33.8399C10.7464 34.2399 10.03 34.3999 9.23399 34.3999C8.43799 34.3999 7.72159 34.2399 7.00519 33.8399C6.60719 33.5999 6.20919 33.4399 5.73159 33.3599H6.04999H5.97039H5.81119H5.73159C5.49279 33.3599 5.33359 33.2799 5.09479 33.2799C5.17439 33.5199 5.17439 33.7599 5.25399 33.9999H5.65199H5.81119H5.89079L6.12959 34.0799L6.36839 34.1599C6.60719 34.2399 6.92559 34.3999 7.16439 34.4799C7.96039 34.8799 8.83599 35.1199 9.71159 35.1199C10.5872 35.1199 11.4628 34.9599 12.2588 34.4799C12.9752 34.0799 13.6916 33.9199 14.4876 33.9199C15.2836 33.9199 16 34.0799 16.7164 34.4799C17.5124 34.8799 18.388 35.1199 19.2636 35.1199C20.1392 35.1199 21.0148 34.9599 21.8108 34.4799C22.0496 34.3199 22.368 34.2399 22.6068 34.1599L22.1292 36.2399C21.8904 36.3199 21.6516 36.4799 21.4128 36.5599C20.776 36.9599 19.98 37.1199 19.2636 37.1199C18.5472 37.1199 17.7512 36.9599 17.1144 36.5599C16.3184 36.1599 15.4428 35.9199 14.5672 35.9199C13.6916 35.9199 12.816 36.0799 12.02 36.5599C11.1444 36.7999 10.3484 36.9599 9.63199 36.9599C8.91559 36.9599 8.11959 36.7999 7.48279 36.3999L7.00519 36.1599C6.68679 35.9999 6.28879 35.9199 5.97039 35.8399C6.12959 36.2399 6.20919 36.5599 6.36839 36.9599C7.00519 38.5599 7.72159 40.0799 8.59719 41.5999L8.67679 41.8399L8.83599 42.1599L8.99519 42.3999L9.15439 42.7199L9.31359 42.9599L9.47279 43.2799L9.63199 43.5199L9.79119 43.7599L10.03 44.0799L10.1892 44.3199L10.428 44.6399L10.5872 44.7999L10.9852 45.3599C14.806 49.9999 19.4228 53.9999 24.6764 56.9599L25.154 57.2799L25.6316 56.9599C30.8852 53.9199 35.502 49.9999 39.2432 45.2799C39.482 45.0399 39.6412 44.7199 39.88 44.4799L39.9596 44.3999C40.1188 44.1599 40.3576 43.8399 40.5168 43.5999L40.5964 43.5199C40.9944 42.9599 41.3924 42.3199 41.7108 41.7599C42.666 40.1599 43.3824 38.5599 44.0192 36.8799C44.1784 36.5599 44.258 36.2399 44.3376 35.9199C43.9396 35.9999 43.6212 36.0799 43.3028 36.2399H43.2232L42.7456 36.4799C41.3924 37.1999 39.8004 37.1999 38.4472 36.4799C36.8552 35.6799 34.9448 35.6799 33.2732 36.4799C31.92 37.1999 30.328 37.1999 28.9748 36.4799C28.736 36.3999 28.4972 36.2399 28.2584 36.1599L27.4624 32.3199L28.4176 32.4799L27.8604 29.9199L30.8852 26.9599L32.8752 28.3999L35.9796 25.2799L39.0044 28.4799L40.9944 27.0399L44.5764 30.6399L45.452 31.5199C45.452 31.1999 45.5316 30.8799 45.5316 30.5599C45.5316 30.4799 45.5316 30.4799 45.5316 30.3999C45.5316 30.3199 45.5316 30.2399 45.5316 30.2399C45.6908 27.7599 45.6112 25.3599 45.2132 22.9599ZM39.4024 23.4399L39.482 23.2799H40.5964L40.9148 22.1599H41.074L41.3924 23.1999H42.5068L42.5864 23.3599L41.6312 23.9999L41.9496 25.1199L41.7904 25.1999L40.8352 24.5599L39.88 25.1999L39.7208 25.1199L40.0392 23.9999L39.4024 23.4399ZM37.0144 23.2799L36.8552 23.3599L35.9 22.7199L35.0244 23.3599L34.8652 23.2799L35.1836 22.1599L34.2284 21.5199L34.308 21.3599H35.4224L35.8204 20.2399H35.9796L36.298 21.3599H37.4124L37.492 21.5199L36.6164 22.2399L37.0144 23.2799ZM31.8404 25.1999L31.6812 25.2799L30.726 24.6399L29.7708 25.2799L29.6116 25.1999L29.93 24.0799L28.9748 23.4399L29.0544 23.2799H30.1688L30.4872 22.1599H30.6464L30.9648 23.1999H32.0792L32.1588 23.3599L31.2036 23.9999L31.8404 25.1999ZM27.7012 37.9999L26.5868 37.7599L28.0992 45.1199L25.154 43.9199L22.2088 45.1199L23.7212 37.7599L22.6068 37.9999L24.0396 30.9599L23.164 31.1199L24.9948 21.3599H25.154L27.0644 31.1199L26.1888 30.9599L27.7012 37.9999ZM25.7112 46.0799L25.95 53.0399H24.2784L24.5172 46.0799V44.9599L25.0744 44.7199L25.6316 44.9599L25.7112 46.0799ZM23.7212 48.0799V48.5599C23.164 48.5599 22.6068 48.7199 22.1292 48.9599C21.2536 49.4399 20.2188 49.6799 19.184 49.6799C18.2288 49.6799 17.194 49.5199 16.398 49.0399L16.3184 48.9599L15.9204 48.7999H15.8408C15.6816 48.7199 15.602 48.7199 15.4428 48.6399L15.8408 48.3199L15.9204 48.2399C16.1592 48.3199 16.3184 48.3999 16.5572 48.4799L16.796 48.6399C17.5124 48.9599 18.3084 49.1199 19.0248 49.1199C19.9004 49.1199 20.776 48.9599 21.572 48.4799C22.2088 48.1599 22.9252 47.9199 23.6416 47.9199L23.7212 48.0799ZM33.4324 48.5599L33.6712 48.3999C33.8304 48.3199 34.0692 48.2399 34.308 48.1599L34.8652 48.6399C34.706 48.7199 34.5468 48.7199 34.4672 48.7999L34.2284 48.9599L34.1488 49.0399C33.2732 49.5199 32.318 49.6799 31.3628 49.6799C30.328 49.6799 29.2932 49.4399 28.4176 48.9599C27.94 48.7199 27.3828 48.5599 26.8256 48.5599V48.0799V47.9199C27.542 47.9199 28.2584 48.0799 28.8952 48.4799C29.6912 48.8799 30.5668 49.1199 31.4424 49.1199C31.9996 49.0399 32.716 48.8799 33.4324 48.5599ZM21.7312 37.2799L21.3332 39.1999L22.5272 38.9599L20.8556 46.7999L23.96 45.2799L23.8804 46.3199L23.8008 47.1999C22.9252 47.1999 22.1292 47.3599 21.4128 47.8399C20.6964 48.1599 19.9004 48.3199 19.1044 48.3199C18.388 48.3199 17.6716 48.1599 17.0348 47.8399L16.8756 47.7599C16.6368 47.6799 16.398 47.5199 16.1592 47.4399V37.8399L15.5224 38.3999V47.6799L14.8856 48.2399V37.9999L16.0796 37.0399H16.1592L16.398 37.1199L16.4776 37.1999C16.6368 37.2799 16.8756 37.3599 17.1144 37.4399C17.7512 37.6799 18.388 37.7599 19.1044 37.7599C20.0596 37.9199 20.9352 37.6799 21.7312 37.2799ZM28.5768 37.2799C29.3728 37.6799 30.2484 37.9199 31.124 37.9199C31.7608 37.9199 32.4772 37.8399 33.114 37.5999C33.3528 37.5199 33.512 37.4399 33.7508 37.3599L34.0692 37.1999H34.1488L35.3428 38.1599V48.3199L34.706 47.7599V38.3999L33.9896 37.8399V47.5199C33.7508 47.5999 33.512 47.6799 33.2732 47.8399L33.114 47.9199C32.4772 48.2399 31.7608 48.3999 31.0444 48.3999C30.2484 48.3999 29.532 48.2399 28.8156 47.8399C28.0992 47.4399 27.2236 47.1999 26.4276 47.1999L26.348 46.3199L26.2684 45.2799L29.3728 46.7999L29.134 45.7599L27.7012 38.9599L28.8952 39.1999L28.5768 37.2799Z" fill="black"/>
<path d="M33.1143 40.2403L33.4327 40.0803V39.2803H33.3531L33.1143 39.4403C32.4775 39.7603 31.8407 39.8403 31.1243 39.8403C30.4079 39.8403 29.6915 39.6803 29.0547 39.3603V40.1603C30.3283 40.6403 31.7611 40.7203 33.1143 40.2403Z" fill="black"/>
<path d="M33.1133 42.3202C32.4764 42.6402 31.8396 42.7202 31.1233 42.7202C30.5661 42.7202 30.0089 42.6402 29.5312 42.4802V43.2002C30.0089 43.3602 30.5661 43.4402 31.1233 43.4402C31.7601 43.4402 32.4764 43.3602 33.1133 43.1202L33.4317 42.9602V42.1602H33.3521L33.1133 42.3202Z" fill="black"/>
<path d="M33.1132 45.12C32.4764 45.44 31.8396 45.52 31.1232 45.52C30.8048 45.52 30.4864 45.52 30.168 45.44V46.16C30.4864 46.24 30.8048 46.24 31.1232 46.24C31.76 46.24 32.4764 46.16 33.1132 45.92L33.4316 45.76V44.96H33.352L33.1132 45.12Z" fill="black"/>
<path d="M8.2793 19.3604L8.6773 19.6804L12.7369 14.0804V13.3604H12.1001L8.2793 19.3604Z" fill="black"/>
<path d="M31.2833 33.44V31.04H30.3281V31.68H30.6465V33.44H31.2833Z" fill="black"/>
<path d="M33.2734 32.7999C33.4326 33.2799 33.9102 33.5999 34.3878 33.5199C34.7062 33.4399 35.0246 33.1999 35.1042 32.7999C35.1042 32.5599 34.945 32.3199 34.7062 32.1599C34.8654 32.0799 35.0246 31.8399 35.0246 31.5999C34.945 31.1199 34.547 30.7999 34.0694 30.8799C33.751 30.9599 33.4326 31.1999 33.353 31.5999C33.353 31.8399 33.5122 31.9999 33.6714 32.1599C33.4326 32.3199 33.1938 32.5599 33.2734 32.7999ZM34.149 31.9199C33.9898 31.9199 33.9102 31.8399 33.9102 31.6799C33.9102 31.5199 33.9898 31.4399 34.149 31.4399C34.3082 31.4399 34.3878 31.5199 34.3878 31.6799C34.3878 31.7599 34.3082 31.9199 34.149 31.9199ZM34.149 32.9599C33.9898 32.9599 33.9102 32.8799 33.9102 32.7199C33.9102 32.5599 33.9898 32.4799 34.149 32.4799C34.3082 32.4799 34.3878 32.5599 34.3878 32.7199C34.3878 32.8799 34.3082 32.9599 34.149 32.9599C34.149 33.0399 34.149 33.0399 34.149 32.9599Z" fill="black"/>
<path d="M37.6507 31.0399L37.1731 31.6799C36.9343 31.9199 36.7751 32.3199 36.7751 32.6399C36.7751 32.8799 36.9343 33.1199 37.0935 33.2799C37.3323 33.4399 37.5711 33.5199 37.8099 33.5199C38.2875 33.5999 38.7651 33.1999 38.8447 32.6399V32.5599C38.8447 32.0799 38.5263 31.7599 38.1283 31.6799C38.1283 31.6799 38.1283 31.6799 38.0487 31.6799C37.9691 31.6799 37.8895 31.6799 37.8099 31.6799L38.4467 30.8799L37.6507 31.0399ZM37.7303 32.3199C37.8895 32.3199 38.0487 32.5599 38.0487 32.7199C38.0487 32.8799 37.8895 32.9599 37.7303 33.0399C37.5711 33.0399 37.3323 32.9599 37.3323 32.7199C37.3323 32.5599 37.4119 32.3199 37.6507 32.3199H37.7303Z" fill="black"/>
<path d="M40.3572 32.7999C40.4368 33.2799 40.994 33.5999 41.4716 33.5199C41.79 33.4399 42.1084 33.1999 42.188 32.7999C42.188 32.5599 42.0288 32.3199 41.79 32.1599C41.9492 32.0799 42.1084 31.8399 42.1084 31.5999C42.0288 31.1199 41.6308 30.7999 41.1532 30.8799C40.8348 30.9599 40.5164 31.1999 40.4368 31.5999C40.4368 31.8399 40.596 31.9999 40.7552 32.1599C40.5164 32.2399 40.3572 32.5599 40.3572 32.7999ZM41.2328 31.9199C41.0736 31.9199 40.994 31.8399 40.994 31.6799C40.994 31.5199 41.0736 31.4399 41.2328 31.4399C41.392 31.4399 41.4716 31.5199 41.4716 31.6799C41.4716 31.7599 41.392 31.9199 41.2328 31.9199C41.3124 31.9199 41.3124 31.9199 41.2328 31.9199ZM41.2328 32.9599C41.0736 32.9599 40.994 32.8799 40.994 32.7199C40.994 32.5599 41.0736 32.4799 41.2328 32.4799C41.392 32.4799 41.4716 32.5599 41.4716 32.7199C41.5512 32.8799 41.4716 32.9599 41.2328 32.9599C41.3124 33.0399 41.3124 33.0399 41.2328 32.9599Z" fill="black"/>
<path d="M53.5703 24.0001C53.5703 18.4801 56.5155 15.1201 61.7691 15.1201C67.0227 15.1201 69.8883 18.4801 69.8883 24.0001C69.8883 29.5201 66.9431 32.8801 61.6895 32.8801C56.4359 32.8801 53.5703 29.4401 53.5703 24.0001ZM65.5899 24.0001C65.5899 18.5601 64.3959 16.4801 61.7691 16.4801C59.1423 16.4801 57.9483 18.5601 57.9483 24.0001C57.9483 29.4401 59.1423 31.4401 61.7691 31.4401C64.3959 31.4401 65.5899 29.3601 65.5899 24.0001Z" fill="#D73F09"/>
<path d="M78.1679 31.6797L77.7699 32.5597H70.6855V31.7597L71.8795 31.1997V23.1997L70.6855 21.2797V20.9597L75.0635 19.5197H75.6207L75.5411 22.4797H75.6207C76.1779 20.9597 77.3719 19.5197 79.2823 19.5197C80.4763 19.3597 81.5907 20.2397 81.7499 21.5197C81.7499 21.5997 81.7499 21.7597 81.7499 21.8397C81.8295 22.9597 81.0335 23.9197 79.9191 23.9997C79.8395 23.9997 79.8395 23.9997 79.7599 23.9997C78.7251 24.0797 77.8495 23.2797 77.7699 22.2397C77.7699 22.1597 77.7699 22.0797 77.7699 21.9997C76.8943 22.3997 76.1779 23.0397 75.6207 23.8397V31.1197L78.1679 31.6797Z" fill="#D73F09"/>
<path d="M88.9126 30.4001C90.027 30.4001 91.221 30.0001 92.017 29.2801L92.5742 29.9201C91.619 32.0001 89.8678 32.8801 87.4002 32.8801C84.057 32.8801 81.5098 30.7201 81.5098 26.4001C81.5098 22.0801 84.455 19.6001 88.037 19.6001C90.9026 19.6001 92.8926 21.2801 92.8926 24.3201C92.8926 24.8801 92.813 25.4401 92.7334 26.0001H85.1714C85.251 28.5601 86.445 30.4001 88.9126 30.4001ZM85.251 24.5601H89.3902C89.4698 24.2401 89.4698 23.8401 89.4698 23.4401C89.4698 22.0801 89.0718 20.8801 87.7186 20.8801C86.3654 20.8801 85.4898 22.0801 85.251 24.5601Z" fill="#D73F09"/>
<path d="M102.048 30.0003C104.834 30.0003 106.585 31.3603 106.585 34.1603C106.585 37.7603 103.083 39.0403 99.262 39.0403C95.68 39.0403 93.1328 38.2403 93.1328 36.0003C93.1328 34.3203 94.4064 33.6003 96.3964 33.2803V33.2003C94.7248 33.0403 93.7696 32.0803 93.7696 30.5603C93.7696 29.0403 94.884 28.1603 96.476 27.8403C94.8044 27.4403 93.69 25.9203 93.7696 24.1603C93.7696 21.6003 95.68 19.6003 99.3416 19.6003C100.934 19.6003 102.526 19.9203 103.958 20.5603C103.799 20.3203 103.799 20.0803 103.799 19.8403C103.799 19.0403 104.436 18.3203 105.232 18.3203C105.312 18.3203 105.312 18.3203 105.391 18.3203C106.267 18.3203 106.983 18.9603 106.983 19.8403C106.983 19.9203 106.983 19.9203 106.983 20.0003C107.063 20.8803 106.426 21.6803 105.55 21.7603C105.471 21.7603 105.312 21.7603 105.232 21.7603C104.436 21.6803 103.64 21.5203 102.924 21.1203V21.4403C104.038 21.9203 104.675 23.0403 104.675 24.2403C104.675 27.0403 101.889 28.3203 99.3416 28.3203C98.7048 28.3203 98.1476 28.2403 97.5904 28.0803C96.9536 28.3203 96.5556 28.6403 96.5556 29.2803C96.5556 29.9203 96.874 30.1603 97.5904 30.1603L102.048 30.0003ZM96.2372 35.4403C96.2372 36.9603 97.3516 37.6803 99.3416 37.6803C101.65 37.6803 103.401 37.0403 103.401 35.2003C103.401 34.0803 102.844 33.4403 101.093 33.4403H97.4312C96.7148 33.8403 96.2372 34.6403 96.2372 35.4403ZM99.262 20.8003C97.7496 20.8003 97.5108 21.9203 97.5108 23.8403C97.5108 25.7603 97.7496 26.8803 99.262 26.8803C100.774 26.8803 101.013 25.7603 101.013 23.8403C101.013 21.9203 100.774 20.8003 99.262 20.8003Z" fill="#D73F09"/>
<path d="M112.394 32.8801C108.494 32.8801 105.867 30.6401 105.867 26.2401C105.867 21.8401 108.414 19.6001 112.394 19.6001C116.374 19.6001 118.922 21.8401 118.922 26.2401C118.922 30.6401 116.374 32.8801 112.394 32.8801ZM112.394 31.5201C114.305 31.5201 114.862 29.6001 114.862 26.1601C114.862 22.7201 114.305 20.8801 112.394 20.8801C110.484 20.8801 109.927 22.8001 109.927 26.1601C109.927 29.5201 110.484 31.5201 112.394 31.5201Z" fill="#D73F09"/>
<path d="M134.205 31.68L133.807 32.56H127.439V31.76L128.633 31.2V24.8C128.633 22.88 127.678 22.24 126.563 22.24C125.688 22.24 124.892 22.64 124.255 23.2V31.12L126.006 31.68L125.608 32.56H119.24V31.76L120.434 31.2V23.2L119.24 21.28V20.96L123.618 19.52H124.255L124.175 22.08H124.255C125.131 20.48 126.882 19.52 128.713 19.52C130.862 19.52 132.454 21.04 132.454 24V31.12L134.205 31.68Z" fill="#D73F09"/>
<path d="M145.906 29.04C145.906 27.44 145.11 26.72 143.199 25.92L141.13 25.04C138.981 24.32 137.548 22.24 137.707 20C137.707 16.48 140.413 15.04 143.199 15.04C144.473 15.04 145.667 15.28 146.861 15.68L148.294 15.04L148.533 19.92L147.737 20.08L146.304 18.24C145.667 17.04 144.393 16.32 143.04 16.4C141.846 16.32 140.811 17.2 140.732 18.4C140.732 18.48 140.732 18.56 140.732 18.64C140.732 20 141.369 20.8 143.12 21.44L145.269 22.32C147.975 23.44 149.169 24.96 149.169 27.68C149.169 31.2 146.543 32.88 143.438 32.88C142.085 32.88 140.652 32.56 139.458 31.92L137.866 32.88L137.389 27.36L138.264 27.2L139.697 29.28C140.652 30.8 141.767 31.52 143.359 31.52C144.553 31.6 145.667 30.72 145.826 29.52C145.906 29.36 145.906 29.2 145.906 29.04Z" fill="#D73F09"/>
<path d="M149.488 20.3999L154.105 16.3999H154.981V19.8399H158.801L158.563 21.3599H154.981V28.2399C154.981 29.9199 155.617 30.5599 156.811 30.5599C157.607 30.5599 158.324 30.3199 158.961 29.9199L159.279 30.6399C158.324 32.0799 156.732 32.8799 155.06 32.7999C152.752 32.7999 151.239 31.6799 151.239 28.6399V21.2799H149.488V20.3999Z" fill="#D73F09"/>
<path d="M170.265 29.7602C170.265 31.0402 170.743 31.3602 172.096 31.2002L172.175 31.7602C171.379 32.4802 170.265 32.8802 169.151 32.8002C167.877 32.8002 166.842 32.2402 166.603 30.9602H166.524C165.887 32.2402 164.613 32.8802 163.021 32.8802C161.111 32.8802 159.439 31.8402 159.439 29.3602C159.439 26.8002 161.509 25.5202 164.693 25.5202C165.25 25.5202 165.887 25.6002 166.444 25.7602V24.6402C166.444 22.9602 165.33 22.0802 163.658 22.0802C162.464 22.0802 161.27 22.4002 160.156 22.9602L159.837 22.0802C161.191 20.3202 163.26 19.3602 165.489 19.5202C167.877 19.5202 170.265 20.6402 170.265 24.1602V29.7602ZM165.807 26.8802C164.056 26.8802 163.101 27.2802 163.101 28.8802C163.021 29.7602 163.579 30.5602 164.454 30.7202C164.534 30.7202 164.613 30.7202 164.773 30.7202C165.409 30.7202 165.967 30.5602 166.444 30.0802V26.8802H165.807Z" fill="#D73F09"/>
<path d="M170.822 20.3999L175.439 16.3999H176.315V19.8399H180.135L179.897 21.3599H176.315V28.2399C176.315 29.9199 176.951 30.5599 178.145 30.5599C178.941 30.5599 179.658 30.3199 180.295 29.9199L180.613 30.6399C179.658 32.0799 178.066 32.8799 176.394 32.7999C174.086 32.7999 172.573 31.6799 172.573 28.6399V21.2799H170.822V20.3999Z" fill="#D73F09"/>
<path d="M187.776 30.4001C188.89 30.4001 190.084 30.0001 190.88 29.2801L191.437 29.9201C190.482 32.0001 188.731 32.8801 186.263 32.8801C182.92 32.8801 180.373 30.7201 180.373 26.4001C180.373 22.0801 183.318 19.6001 186.821 19.6001C189.686 19.6001 191.676 21.2801 191.676 24.3201C191.676 24.8801 191.597 25.4401 191.517 26.0001H184.035C184.114 28.5601 185.308 30.4001 187.776 30.4001ZM184.114 24.5601H188.174C188.253 24.2401 188.253 23.8401 188.253 23.4401C188.253 22.0801 187.855 20.8801 186.502 20.8801C185.149 20.8801 184.353 22.0801 184.114 24.5601Z" fill="#D73F09"/>
<path d="M68.377 49.8398C68.377 54.0798 65.591 56.2398 61.8498 56.2398C57.9493 56.2398 55.243 54.6398 55.243 50.1598V40.3998L53.0938 39.7598L53.3326 38.7998H59.8597L60.0986 39.7598L57.9494 40.3998V49.7598C57.9494 53.1198 59.3822 54.6398 62.1682 54.6398C64.9542 54.6398 66.7054 53.1198 66.7054 49.5198V40.3998L64.4766 39.7598L64.7154 38.7998H70.2874L70.5262 39.7598L68.377 40.3998V49.8398Z" fill="black"/>
<path d="M83.5801 55.12L83.2617 56H77.6897V55.2L79.0429 54.72V47.52C79.0429 45.68 77.8489 45.28 76.8937 45.28C75.7793 45.28 74.7445 45.68 73.8689 46.4V54.56L75.9385 55.12L75.5405 56H69.9685V55.2L71.3217 54.72V46.24L69.8889 44.64V44.32L73.3913 42.96H73.8689L73.7893 45.44H73.9485C74.8241 43.92 76.4161 42.96 78.1673 42.96C79.8389 42.96 81.5901 44 81.5901 46.96V54.56L83.5801 55.12Z" fill="black"/>
<path d="M89.868 55.1203L89.47 56.0003H83.898V55.2003L85.2512 54.7203V46.2403L83.8184 44.6403V44.3203L87.3208 42.9603H87.7984V54.6403L89.868 55.1203ZM86.5248 37.2803C87.48 37.2803 88.3556 38.0803 88.3556 39.1203C88.3556 40.0803 87.5596 40.9603 86.5248 40.9603C85.5696 40.9603 84.694 40.1603 84.694 39.1203C84.694 38.1603 85.49 37.3603 86.5248 37.2803Z" fill="black"/>
<path d="M98.7039 44.7202L96.7935 44.0802L96.9527 43.2002H101.649L101.808 44.0802L100.455 44.6402L96.0771 56.0002H94.6443L90.0275 44.8002L88.7539 44.0002L88.9927 43.2002H94.3259L94.5647 44.0802L92.7339 44.5602L94.8035 49.6802C95.2811 50.8002 95.5995 52.0002 95.8383 53.2002H95.9975C96.2363 52.0002 96.6343 50.8002 97.0323 49.6002L98.7039 44.7202Z" fill="black"/>
<path d="M107.302 54.3999C108.575 54.3999 109.849 53.9999 110.884 53.1999L111.282 53.8399C110.247 55.4399 108.416 56.3999 106.506 56.2399C103.401 56.2399 100.934 54.0799 100.934 49.6799C100.934 45.2799 103.64 42.8799 106.904 42.8799C109.53 42.8799 111.441 44.4799 111.441 47.4399C111.441 47.9199 111.361 48.4799 111.282 48.9599H103.401C103.401 52.3999 104.914 54.3999 107.302 54.3999ZM103.481 47.8399H108.814C108.814 47.5999 108.814 47.2799 108.814 47.0399C108.814 45.1999 108.098 44.2399 106.585 44.2399C105.073 44.2399 103.879 45.3599 103.481 47.8399Z" fill="black"/>
<path d="M118.445 55.12L118.047 56H111.917V55.2L113.271 54.72V46.24L111.838 44.64V44.32L115.34 42.96H115.818L115.738 46H115.818C116.534 44.4 117.887 42.96 119.479 42.96C120.833 42.96 121.629 43.76 121.629 44.88C121.708 45.76 121.071 46.56 120.116 46.64C120.037 46.64 119.957 46.64 119.957 46.64C119.081 46.72 118.365 46 118.285 45.12C118.285 45.04 118.285 44.96 118.285 44.88C117.251 45.44 116.375 46.24 115.818 47.28V54.72L118.445 55.12Z" fill="black"/>
<path d="M122.425 51.84C123.619 54.48 124.813 55.12 126.326 55.12C127.599 55.12 128.475 54.64 128.475 53.28C128.475 52.16 127.838 51.52 126.405 51.04L124.734 50.48C122.983 49.84 121.868 48.8 121.868 46.64C121.868 44.16 123.699 42.96 126.087 42.96C126.883 42.96 127.679 43.2 128.395 43.52L129.828 43.04L130.067 46.8L129.43 47.04C128.157 44.88 127.122 44.24 125.928 44.24C124.973 44.08 124.097 44.8 123.938 45.76C123.938 45.84 123.938 45.92 123.938 46C123.938 47.04 124.495 47.76 125.848 48.24L127.52 48.8C129.43 49.44 130.624 50.48 130.624 52.72C130.624 55.28 128.714 56.4 126.087 56.4C125.052 56.4 124.097 56.16 123.221 55.76L121.948 56.4L121.709 52.16L122.425 51.84Z" fill="black"/>
<path d="M137.309 55.1203L136.911 56.0003H131.339V55.2003L132.693 54.7203V46.2403L131.26 44.6403V44.3203L134.762 42.9603H135.24V54.6403L137.309 55.1203ZM133.966 37.2803C134.921 37.2803 135.797 38.0803 135.717 39.1203C135.717 40.0803 134.921 40.9603 133.887 40.8803C132.931 40.8803 132.135 40.0803 132.135 39.1203C132.135 38.1603 132.931 37.3603 133.966 37.2803C133.887 37.2803 133.887 37.2803 133.966 37.2803Z" fill="black"/>
<path d="M136.435 43.8398L140.097 39.8398H140.654V43.2798H144.873L144.634 44.6398H140.574V52.2398C140.574 53.8398 141.291 54.5598 142.485 54.5598C143.281 54.5598 144.156 54.3198 144.873 53.9198L145.191 54.6398C144.156 55.7598 142.723 56.3198 141.211 56.2398C139.301 56.2398 138.027 55.1998 138.027 52.6398V44.6398H136.355L136.435 43.8398Z" fill="black"/>
<path d="M144.873 44.8001L143.599 44.0001L143.838 43.2001H149.251L149.49 44.0801L147.659 44.5601L149.729 50.0801C150.206 51.2801 150.525 52.5601 150.684 53.7601H150.763C150.763 53.7601 151.241 51.9201 151.878 50.0001L153.629 44.6401L151.719 44.0001L151.878 43.1201H156.495L156.654 44.0001L155.301 44.5601L151.241 55.7601C149.41 60.7201 147.898 62.3201 145.51 62.3201C143.997 62.3201 143.201 61.4401 143.201 60.3201C143.122 59.4401 143.838 58.6401 144.714 58.6401C144.793 58.6401 144.793 58.6401 144.873 58.6401C145.669 58.6401 146.306 59.2001 146.385 60.0001C146.385 60.0801 146.385 60.0801 146.385 60.1601C146.385 60.4801 146.306 60.8801 146.067 61.1201C147.261 61.1201 148.773 58.9601 149.569 56.4801L144.873 44.8001Z" fill="black"/>
</g>
<defs>
<clipPath id="clip0_291_26223">
<rect width="199" height="64" fill="white"/>
</clipPath>
</defs>
</svg>
