<svg width="24" height="24" viewBox="0 0 24 24" fill="none" xmlns="http://www.w3.org/2000/svg">
<path d="M17.18 18C19.58 18 20.18 16.65 20.18 15V9C20.18 7.35 19.58 6 17.18 6C14.78 6 14.18 7.35 14.18 9V15C14.18 16.65 14.78 18 17.18 18Z" stroke="#4FB155" stroke-width="1.5" stroke-linecap="round" stroke-linejoin="round"/>
<path d="M6.82001 18C4.42001 18 3.82001 16.65 3.82001 15V9C3.82001 7.35 4.42001 6 6.82001 6C9.22001 6 9.82001 7.35 9.82001 9V15C9.82001 16.65 9.22001 18 6.82001 18Z" stroke="#4FB155" stroke-width="1.5" stroke-linecap="round" stroke-linejoin="round"/>
<path opacity="0.4" d="M9.82001 12H14.18" stroke="#4FB155" stroke-width="1.5" stroke-linecap="round" stroke-linejoin="round"/>
<path opacity="0.4" d="M22.5 14.5V9.5" stroke="#4FB155" stroke-width="1.5" stroke-linecap="round" stroke-linejoin="round"/>
<path opacity="0.4" d="M1.5 14.5V9.5" stroke="#4FB155" stroke-width="1.5" stroke-linecap="round" stroke-linejoin="round"/>
</svg>
