<svg width="24" height="24" viewBox="0 0 24 24" fill="none" xmlns="http://www.w3.org/2000/svg">
<g id="vuesax/bulk/mask">
<g id="mask">
<path id="Vector" opacity="0.4" d="M21.97 12.0003C21.97 14.9403 20.69 17.6003 18.65 19.4103C16.89 21.0103 14.56 21.9703 12 21.9703C6.50003 21.9703 2.03003 17.5003 2.03003 12.0003C2.03003 6.50027 6.50003 2.03027 12 2.03027C14.56 2.03027 16.89 2.99027 18.65 4.59027C20.69 6.40027 21.97 9.06027 21.97 12.0003Z" fill="white"/>
<path id="Vector_2" d="M11.97 16.3902C11.95 18.0402 10.72 18.4402 9.57003 17.9802C7.20003 17.0302 5.53003 14.7102 5.53003 12.0002C5.53003 9.29024 7.20003 6.97024 9.57003 6.01024C10.72 5.55024 11.95 5.96024 11.97 7.60024V16.3902Z" fill="white"/>
</g>
</g>
</svg>
