<svg width="24" height="24" viewBox="0 0 24 24" fill="none" xmlns="http://www.w3.org/2000/svg">
<g clip-path="url(#clip0_1518_143)">
<rect width="24" height="24" fill="black" fill-opacity="0.03"/>
<path d="M7.96964 16H5.14435V7.27273H8.05913C8.91424 7.27273 9.64862 7.44744 10.2623 7.79688C10.8759 8.14347 11.3461 8.64205 11.6728 9.29261C12.0023 9.94034 12.1671 10.7173 12.1671 11.6236C12.1671 12.5327 12.0009 13.3139 11.6685 13.9673C11.339 14.6207 10.8617 15.1236 10.2367 15.4759C9.61168 15.8253 8.856 16 7.96964 16ZM6.46112 14.8494H7.89719C8.56197 14.8494 9.11452 14.7244 9.55487 14.4744C9.99521 14.2216 10.3248 13.8565 10.5435 13.3793C10.7623 12.8991 10.8716 12.3139 10.8716 11.6236C10.8716 10.9389 10.7623 10.358 10.5435 9.88068C10.3276 9.40341 10.0051 9.04119 9.57617 8.79403C9.14719 8.54687 8.61452 8.4233 7.97816 8.4233H6.46112V14.8494ZM14.1081 16H12.7104L15.851 7.27273H17.3723L20.513 16H19.1152L16.6479 8.85795H16.5797L14.1081 16ZM14.3425 12.5824H18.8766V13.6903H14.3425V12.5824Z" fill="#9CA1AB"/>
</g>
<defs>
<clipPath id="clip0_1518_143">
<path d="M0 2C0 0.89543 0.895431 0 2 0H22C23.1046 0 24 0.895431 24 2V22C24 23.1046 23.1046 24 22 24H2C0.89543 24 0 23.1046 0 22V2Z" fill="white"/>
</clipPath>
</defs>
</svg>
