<svg width="19" height="18" viewBox="0 0 19 18" fill="none" xmlns="http://www.w3.org/2000/svg">
<path d="M5.75 16.5H13.25C16.25 16.5 17 15.75 17 12.75V11.25C17 8.25 16.25 7.5 13.25 7.5H5.75C2.75 7.5 2 8.25 2 11.25V12.75C2 15.75 2.75 16.5 5.75 16.5Z" stroke="#F3F0E7" stroke-width="1.5" stroke-linecap="round" stroke-linejoin="round"/>
<path d="M14 7.5V6C14 3.5175 13.25 1.5 9.5 1.5C6.125 1.5 5 3 5 5.25" stroke="#F3F0E7" stroke-width="1.5" stroke-linecap="round" stroke-linejoin="round"/>
<path d="M9.5 13.875C8.46447 13.875 7.625 13.0355 7.625 12C7.625 10.9645 8.46447 10.125 9.5 10.125C10.5355 10.125 11.375 10.9645 11.375 12C11.375 13.0355 10.5355 13.875 9.5 13.875Z" stroke="#F3F0E7" stroke-width="1.5" stroke-linecap="round" stroke-linejoin="round"/>
</svg>
