<svg width="32" height="40" viewBox="0 0 32 40" fill="none" xmlns="http://www.w3.org/2000/svg">
<path d="M31.2554 14.1422C31.0949 12.9057 30.7205 11.723 30.1856 10.6479C29.8111 9.89523 29.3297 9.19637 28.6878 8.65879C27.8855 7.95993 26.8692 7.58362 25.7994 7.58362C25.318 7.58362 24.8366 7.63738 24.3552 7.79865L25.7459 4.78817L25.9064 4.41186L25.5854 4.25059L22.8575 2.31528L22.7505 2.20776H20.4504C19.969 2.10025 19.4876 1.88521 19.1132 1.56266C17.8294 0.541251 16.2782 0.00366535 14.62 0.00366535C12.9619 -0.0500932 11.3572 0.487492 10.0734 1.61642L5.36632 6.23965L5.25934 6.34717L2.53136 9.0351C2.04996 9.51892 1.67553 10.0565 1.40808 10.7016C0.873182 11.8305 0.498754 12.9595 0.338285 14.1959C-0.196613 17.0451 -0.0896333 19.9481 0.605733 22.7435C1.40808 25.7002 2.79881 28.4419 4.67095 30.8611C7.29195 34.1941 10.6083 36.9895 14.3526 39.1399L15.5294 39.8387L15.7968 40L16.0643 39.8387L17.241 39.1399C20.9853 36.9895 24.2482 34.1403 26.9762 30.8073C28.8483 28.3882 30.239 25.6465 31.0414 22.6898C31.6298 19.8943 31.7368 16.9914 31.2554 14.1422Z" fill="white"/>
<path d="M13.4968 11.0242H9.27116L8.89673 17.4214C9.11069 17.4752 9.37814 17.5289 9.5921 17.6365L13.4968 11.0242Z" fill="black"/>
<path d="M10.2339 25.5389L10.1804 26.0765L10.3944 26.184C10.8223 26.3453 11.2502 26.4528 11.7316 26.3991C12.213 26.3991 12.6944 26.3453 13.1224 26.1303V25.5927C12.6944 25.8077 12.213 25.9153 11.7316 25.9153C11.3037 25.9153 10.8223 25.8077 10.3944 25.6465L10.2339 25.5389Z" fill="black"/>
<path d="M10.3944 27.528L10.2339 27.4205H10.1804V27.9581L10.3944 28.0656C10.8223 28.2269 11.2502 28.3344 11.7316 28.2807C12.1061 28.2807 12.4805 28.2269 12.8014 28.1194V27.6356C12.4805 27.7431 12.1061 27.7968 11.7316 27.7968C11.2502 27.8506 10.7688 27.7431 10.3944 27.528Z" fill="black"/>
<path d="M10.3944 29.4095L10.2339 29.302H10.1804V29.8396L10.3944 29.9471C10.8223 30.1084 11.2502 30.1621 11.6781 30.1621C11.8921 30.1621 12.1061 30.1621 12.32 30.1084V29.6246C12.1061 29.6783 11.8921 29.6783 11.6781 29.6783C11.2502 29.7321 10.7688 29.6246 10.3944 29.4095Z" fill="black"/>
<path d="M15.155 2.20777C15.5295 2.26152 15.8504 2.4228 16.1713 2.58408C16.4923 2.74535 16.8132 2.96039 17.0807 3.17542C17.5086 3.55173 17.99 3.87428 18.4714 4.14307V3.3367C18.097 3.12166 17.776 2.90663 17.4016 2.69159C17.0807 2.47656 16.7062 2.31528 16.3853 2.15401C16.0109 1.99273 15.6364 1.88522 15.262 1.83146C14.8876 1.7777 14.5131 1.7777 14.0852 1.83146H14.0317V2.15401H14.0852C14.4062 2.10025 14.7806 2.15401 15.155 2.20777Z" fill="black"/>
<path d="M30.774 14.2496C30.6136 13.067 30.2391 11.938 29.7577 10.8629C29.4368 10.164 28.9554 9.51889 28.367 9.03506C27.6716 8.44372 26.7088 8.06741 25.7995 8.06741C24.5692 8.06741 23.3924 8.55124 22.5366 9.41137L21.1459 7.90613L21.3598 7.42231H23.2855L23.0715 7.90613H23.8204L25.3181 4.62687L22.5901 2.69156H20.4505C19.8621 2.58404 19.2737 2.31525 18.8458 1.93894C17.669 0.971286 16.1713 0.4337 14.6201 0.4337C13.0689 0.326183 11.5712 0.863768 10.3944 1.88518L5.52687 6.66969L2.7989 9.35762C2.37098 9.78768 1.99655 10.3253 1.7291 10.8629C1.24769 11.938 0.873266 13.067 0.712796 14.2496C0.177899 16.9913 0.284878 19.8405 0.980245 22.5822C1.78259 25.4852 3.11983 28.1731 4.99197 30.5385C7.66646 33.8715 10.9293 36.6669 14.6201 38.7635L15.7969 39.4624L16.9737 38.7635C20.6645 36.6132 23.9273 33.8177 26.6018 30.5385C28.4205 28.1731 29.7577 25.4852 30.5601 22.5822C31.2019 19.8405 31.3089 16.9913 30.774 14.2496ZM10.8224 2.36901C11.1433 2.04646 12.2131 1.0788 14.5666 1.0788C15.9574 1.0788 17.3481 1.56263 18.4179 2.47652C19.1133 2.96035 19.7017 3.33666 20.4505 3.33666H22.3761L24.5157 4.8419L23.6599 6.72345H21.7343C21.4668 6.72345 21.1994 6.61593 20.9854 6.4009C20.718 6.1321 20.5575 5.80955 20.504 5.43324H20.1831C20.1831 5.64828 20.1831 5.91707 20.29 6.1321C20.3435 6.34714 20.504 6.56217 20.6645 6.77721C20.718 6.88472 20.8249 6.93848 20.9319 6.99224L20.4505 8.01365L21.7343 9.41137H20.7714L19.0598 7.95989H18.6853L19.9156 9.41137H17.4016L15.9574 7.95989H15.1015C15.262 7.58358 15.369 7.15352 15.369 6.72345C15.369 6.66969 15.369 6.56217 15.369 6.50841V6.29338V6.18586V6.07834L15.3155 5.86331C15.262 5.54076 15.155 5.27197 14.9946 5.00317C14.8341 4.73438 14.6736 4.46559 14.4597 4.25056L14.4062 4.1968L14.2992 4.14304L14.1387 3.98176C14.0317 3.87425 13.8713 3.82049 13.7643 3.71297C13.2294 3.39042 12.748 3.22914 12.2666 3.17538C12.1596 3.17538 11.9991 3.17538 11.8387 3.17538V3.49794C12.3736 3.49794 12.9085 3.65921 13.3364 3.98176C13.4434 4.03552 13.5503 4.14304 13.6573 4.1968L13.8178 4.35807L13.8713 4.41183L13.9248 4.46559C14.0852 4.68062 14.2457 4.89566 14.3527 5.11069C14.4597 5.32573 14.5666 5.59452 14.6201 5.86331V6.07834V6.18586V6.50841C14.6201 6.56217 14.6201 6.61593 14.6201 6.72345C14.5666 7.26103 14.4062 7.74486 14.0852 8.12117L13.7108 8.65875H15.5295L16.3318 9.46513H8.84324V6.66969H6.4362L10.8224 2.36901ZM7.4525 12.0993C7.18505 13.1207 6.32922 13.8733 5.31291 13.9808H5.04546C3.76171 13.9808 2.63843 12.9594 2.53145 11.6692C2.53145 11.6155 2.53145 11.5617 2.53145 11.508C2.53145 10.8091 2.7989 10.164 3.33379 9.68017L5.74083 7.31479H8.14787V9.68017L7.4525 12.0993ZM29.8647 22.4209C29.3833 24.0875 28.7414 25.754 27.8856 27.2592L27.7251 27.4742L27.6181 27.6355L27.4577 27.8505L27.3507 28.1193L27.2437 28.3344L26.9763 28.7107L26.8693 28.872L26.6553 29.1408L26.5483 29.302L26.3344 29.5708L26.2274 29.6783L25.9065 30.1084L25.639 30.4847C24.5157 31.8824 23.232 33.2264 21.8412 34.4091C20.718 35.3767 19.5947 36.2369 18.3644 37.0433C17.776 37.4196 17.1341 37.8496 16.4923 38.2259L15.6899 38.7098L14.8876 38.2259C11.3038 36.1294 8.09438 33.3877 5.47338 30.1622L5.25942 29.8934L5.15244 29.7321L4.93849 29.4095L4.83151 29.1945L4.56406 28.8182L4.51057 28.7644L4.24312 28.3344C3.06634 26.5066 2.15702 24.5175 1.62212 22.4209C0.980245 19.7868 0.873265 17.0451 1.35467 14.3572C1.46165 13.5508 1.67561 12.7444 1.94306 11.9918C1.99655 12.4756 2.21051 12.9594 2.47796 13.3357C2.37098 13.7121 2.31749 14.0884 2.21051 14.5184C2.10353 15.1635 1.99655 15.8624 1.99655 16.5075L6.38271 18.5503C6.4362 18.4428 6.54318 18.3353 6.65016 18.2278C6.70365 18.174 6.81063 18.0665 6.86412 18.0127L4.18963 14.5184C4.67104 14.626 5.15244 14.6797 5.63385 14.5722L7.4525 17.5827C7.66646 17.4752 7.88042 17.4214 8.14787 17.3676L7.88042 12.8519C7.9874 12.6369 8.04089 12.4756 8.09438 12.2606L8.73626 10.1102V10.0565H22.8575L22.9645 9.94896C23.7134 9.14258 24.7297 8.71251 25.7995 8.76627C26.6018 8.76627 27.3507 9.03506 27.9391 9.57265C28.474 10.0027 28.8484 10.5941 29.1693 11.1854C29.6507 12.2068 29.9717 13.282 30.1321 14.3572C30.6136 17.0451 30.5066 19.7868 29.8647 22.4209Z" fill="black"/>
<path d="M22.4831 5.05694C22.6899 5.05694 22.8575 4.88846 22.8575 4.68063C22.8575 4.4728 22.6899 4.30432 22.4831 4.30432C22.2763 4.30432 22.1086 4.4728 22.1086 4.68063C22.1086 4.88846 22.2763 5.05694 22.4831 5.05694Z" fill="black"/>
<path d="M20.4503 4.89571C20.5038 4.62691 20.7178 4.41188 20.9852 4.35812V3.98181H20.1294V4.89571H20.4503Z" fill="black"/>
<path d="M29.2226 14.5185C28.8482 12.3144 27.9389 9.6802 25.7993 9.6802C24.783 9.62645 23.8202 10.164 23.3388 11.0242H15.5293L10.1803 18.0128C10.2338 18.0665 10.2873 18.1203 10.3942 18.1741C10.5012 18.2816 10.6082 18.4428 10.6617 18.5504L14.513 16.7763L14.192 18.1741L10.9826 19.1955C11.0361 19.4105 11.0896 19.6793 11.0896 19.9481C10.9826 19.9481 10.8757 19.8943 10.7687 19.8406C10.6617 19.7868 10.5547 19.733 10.4477 19.733L10.2873 19.6793L9.96633 19.518C9.69888 19.4105 9.43143 19.303 9.16398 19.303H9.00352H8.78956H8.25466H8.0407H7.88023C7.61278 19.3567 7.34533 19.4105 7.07789 19.518L6.75695 19.6793L6.59648 19.733C6.4895 19.7868 6.38252 19.8406 6.27554 19.8406C6.16856 19.8943 6.06158 19.8943 5.9546 19.9481C5.9546 19.6793 6.00809 19.4105 6.06158 19.1955L1.94287 17.8515C1.94287 18.3353 1.94287 18.8192 1.99636 19.303C1.99636 19.3567 1.99636 19.4105 1.99636 19.4643C1.99636 19.518 1.99636 19.6793 1.99636 19.7868C1.99636 19.8406 1.99636 19.9481 1.99636 20.0018H2.42428L2.69173 20.0556C2.95918 20.1094 3.28011 20.2169 3.49407 20.3781C4.02897 20.6469 4.61736 20.8082 5.20574 20.8082C5.79413 20.8082 6.38252 20.7007 6.91742 20.3781C7.0244 20.3244 7.18486 20.2706 7.29184 20.2169C7.55929 20.1094 7.88023 20.0556 8.20117 20.0556H8.5756C8.84305 20.0556 9.16398 20.1094 9.43143 20.2169C9.5919 20.2706 9.69888 20.3244 9.85935 20.3781C10.3942 20.6469 10.9826 20.8082 11.571 20.8082C12.1594 20.8082 12.7478 20.7007 13.2827 20.3781L13.5501 20.2706L13.3897 20.9157L13.9781 20.8082L13.8176 21.5071C13.4967 21.5608 13.2292 21.6684 12.9618 21.8296C12.4803 22.0984 11.9989 22.2059 11.464 22.2059C10.9291 22.2059 10.4477 22.0984 9.96633 21.8296C9.43143 21.5608 8.84305 21.3996 8.25466 21.3996C7.66627 21.3996 7.07789 21.5071 6.54299 21.8296C6.06158 22.0984 5.58017 22.2059 5.04528 22.2059C4.51038 22.2059 4.02897 22.0984 3.54756 21.8296C3.28011 21.6684 3.01267 21.5608 2.69173 21.5071H2.90569H2.8522H2.74522H2.69173C2.53126 21.5071 2.42428 21.4533 2.26381 21.4533C2.3173 21.6146 2.3173 21.7759 2.37079 21.9371H2.63824H2.74522H2.79871L2.95918 21.9909L3.11965 22.0447C3.28011 22.0984 3.49407 22.2059 3.65454 22.2597C4.18944 22.5285 4.77783 22.6898 5.36621 22.6898C5.9546 22.6898 6.54299 22.5822 7.07789 22.2597C7.55929 21.9909 8.0407 21.8834 8.5756 21.8834C9.1105 21.8834 9.5919 21.9909 10.0733 22.2597C10.6082 22.5285 11.1966 22.6898 11.785 22.6898C12.3734 22.6898 12.9618 22.5822 13.4967 22.2597C13.6571 22.1522 13.8711 22.0984 14.0315 22.0447L13.7106 23.4424C13.5501 23.4961 13.3897 23.6037 13.2292 23.6574C12.8013 23.9262 12.2664 24.0337 11.785 24.0337C11.3036 24.0337 10.7687 23.9262 10.3408 23.6574C9.80586 23.3886 9.21747 23.2274 8.62909 23.2274C8.0407 23.2274 7.45231 23.3349 6.91742 23.6574C6.32903 23.8187 5.79413 23.9262 5.31272 23.9262C4.83132 23.9262 4.29642 23.8187 3.8685 23.5499L3.54756 23.3886C3.3336 23.2811 3.06616 23.2274 2.8522 23.1736C2.95918 23.4424 3.01267 23.6574 3.11965 23.9262C3.54756 25.0014 4.02897 26.0228 4.61736 27.0442L4.67085 27.2055L4.77783 27.4205L4.88481 27.5818L4.99179 27.7968L5.09877 27.9581L5.20574 28.1731L5.31272 28.3344L5.4197 28.4957L5.58017 28.7107L5.68715 28.872L5.84762 29.087L5.9546 29.1945L6.22205 29.5709C8.78956 32.6889 11.892 35.3768 15.4223 37.3658L15.7432 37.5809L16.0642 37.3658C19.5945 35.323 22.6969 32.6889 25.2109 29.5171C25.3714 29.3558 25.4784 29.1408 25.6388 28.9795L25.6923 28.9258C25.7993 28.7645 25.9598 28.5494 26.0667 28.3882L26.1202 28.3344C26.3877 27.9581 26.6551 27.528 26.8691 27.1517C27.511 26.0766 27.9924 25.0014 28.4203 23.8725C28.5273 23.6574 28.5808 23.4424 28.6342 23.2274C28.3668 23.2811 28.1528 23.3349 27.9389 23.4424H27.8854L27.5645 23.6037C26.6551 24.0875 25.5853 24.0875 24.676 23.6037C23.6062 23.0661 22.3225 23.0661 21.1992 23.6037C20.2899 24.0875 19.2201 24.0875 18.3107 23.6037C18.1503 23.5499 17.9898 23.4424 17.8293 23.3886L17.2944 20.8082L17.9363 20.9157L17.5619 19.1955L19.5945 17.2064L20.9317 18.1741L23.0178 16.0775L25.0504 18.2278L26.3877 17.2602L28.7947 19.6793L29.3831 20.2706C29.3831 20.0556 29.4366 19.8406 29.4366 19.6255C29.4366 19.5718 29.4366 19.5718 29.4366 19.518C29.4366 19.4643 29.4366 19.4105 29.4366 19.4105C29.5436 17.744 29.4901 16.1312 29.2226 14.5185ZM25.3179 14.841L25.3714 14.7335H26.1202L26.3342 13.9809H26.4412L26.6551 14.6797H27.404L27.4575 14.7873L26.8156 15.2173L27.0296 15.97L26.9226 16.0237L26.2807 15.5936L25.6388 16.0237L25.5318 15.97L25.7458 15.2173L25.3179 14.841ZM23.7132 14.7335L23.6062 14.7873L22.9643 14.3572L22.3759 14.7873L22.269 14.7335L22.4829 13.9809L21.8411 13.5508L21.8945 13.4433H22.6434L22.9108 12.6907H23.0178L23.2318 13.4433H23.9806L24.0341 13.5508L23.4457 14.0346L23.7132 14.7335ZM20.2364 16.0237L20.1294 16.0775L19.4875 15.6474L18.8456 16.0775L18.7386 16.0237L18.9526 15.2711L18.3107 14.841L18.3642 14.7335H19.1131L19.327 13.9809H19.434L19.648 14.6797H20.3968L20.4503 14.7873L19.8084 15.2173L20.2364 16.0237ZM17.4549 24.6251L16.706 24.4638L17.7223 29.4096L15.7432 28.6032L13.7641 29.4096L14.7804 24.4638L14.0315 24.6251L14.9944 19.8943L14.406 20.0018L15.6362 13.4433H15.7432L17.027 20.0018L16.4386 19.8943L17.4549 24.6251ZM16.1177 30.0547L16.2781 34.7317H15.1548L15.3153 30.0547V29.3021L15.6897 29.1408L16.0642 29.3021L16.1177 30.0547ZM14.7804 31.3986V31.7212C14.406 31.7212 14.0316 31.8287 13.7106 31.99C13.1222 32.3125 12.4269 32.4738 11.7315 32.4738C11.0896 32.4738 10.3942 32.3663 9.85935 32.0437L9.80586 31.99L9.53841 31.8825H9.48492C9.37794 31.8287 9.32445 31.8287 9.21747 31.775L9.48492 31.5599L9.53841 31.5062C9.69888 31.5599 9.80586 31.6137 9.96633 31.6674L10.1268 31.775C10.6082 31.99 11.1431 32.0975 11.6245 32.0975C12.2129 32.0975 12.8013 31.99 13.3362 31.6674C13.7641 31.4524 14.2455 31.2911 14.7269 31.2911L14.7804 31.3986ZM21.3062 31.7212L21.4666 31.6137C21.5736 31.5599 21.7341 31.5062 21.8945 31.4524L22.269 31.775C22.162 31.8287 22.055 31.8287 22.0015 31.8825L21.8411 31.99L21.7876 32.0437C21.1992 32.3663 20.5573 32.4738 19.9154 32.4738C19.2201 32.4738 18.5247 32.3125 17.9363 31.99C17.6154 31.8287 17.2409 31.7212 16.8665 31.7212V31.3986V31.2911C17.3479 31.2911 17.8293 31.3986 18.2572 31.6674C18.7921 31.9362 19.3805 32.0975 19.9689 32.0975C20.3433 32.0437 20.8247 31.9362 21.3062 31.7212ZM13.4432 24.1412L13.1757 25.4315L13.9781 25.2702L12.8548 30.5385L14.9409 29.5171L14.8874 30.216L14.8339 30.8073C14.2455 30.8073 13.7106 30.9148 13.2292 31.2374C12.7478 31.4524 12.2129 31.5599 11.678 31.5599C11.1966 31.5599 10.7152 31.4524 10.2873 31.2374L10.1803 31.1836C10.0198 31.1299 9.85935 31.0223 9.69888 30.9686V24.5176L9.27096 24.8939V31.1299L8.84305 31.5062V24.6251L9.64539 23.98H9.69888L9.85935 24.0337L9.91284 24.0875C10.0198 24.1412 10.1803 24.195 10.3408 24.2488C10.7687 24.41 11.1966 24.4638 11.678 24.4638C12.3199 24.5713 12.9083 24.41 13.4432 24.1412ZM18.0433 24.1412C18.5782 24.41 19.1666 24.5713 19.755 24.5713C20.1829 24.5713 20.6643 24.5176 21.0922 24.3563C21.2527 24.3025 21.3596 24.2488 21.5201 24.195L21.7341 24.0875H21.7876L22.5899 24.7326V31.5599L22.162 31.1836V24.8939L21.6806 24.5176V31.0223C21.5201 31.0761 21.3596 31.1299 21.1992 31.2374L21.0922 31.2911C20.6643 31.5062 20.1829 31.6137 19.7015 31.6137C19.1666 31.6137 18.6852 31.5062 18.2038 31.2374C17.7223 30.9686 17.134 30.8073 16.5991 30.8073L16.5456 30.216L16.4921 29.5171L18.5782 30.5385L18.4177 29.8396L17.4549 25.2702L18.2572 25.4315L18.0433 24.1412Z" fill="black"/>
<path d="M21.0922 26.1303L21.3062 26.0228V25.4852H21.2527L21.0922 25.5927C20.6643 25.8078 20.2364 25.8615 19.755 25.8615C19.2736 25.8615 18.7922 25.754 18.3643 25.539V26.0766C19.2201 26.3991 20.1829 26.4529 21.0922 26.1303Z" fill="black"/>
<path d="M21.0923 27.528C20.6644 27.7431 20.2365 27.7968 19.7551 27.7968C19.3807 27.7968 19.0062 27.7431 18.6853 27.6356V28.1194C19.0062 28.2269 19.3807 28.2807 19.7551 28.2807C20.183 28.2807 20.6644 28.2269 21.0923 28.0656L21.3063 27.9581V27.4205H21.2528L21.0923 27.528Z" fill="black"/>
<path d="M21.0924 29.4095C20.6645 29.6246 20.2366 29.6783 19.7552 29.6783C19.5412 29.6783 19.3272 29.6783 19.1133 29.6246V30.1084C19.3272 30.1621 19.5412 30.1621 19.7552 30.1621C20.1831 30.1621 20.6645 30.1084 21.0924 29.9471L21.3064 29.8396V29.302H21.2529L21.0924 29.4095Z" fill="black"/>
<path d="M4.40356 12.0994L4.67101 12.3144L7.39899 8.55133V8.0675H6.97107L4.40356 12.0994Z" fill="black"/>
<path d="M19.8621 21.5609V19.9481H19.2202V20.3782H19.4342V21.5609H19.8621Z" fill="black"/>
<path d="M21.1992 21.1307C21.3062 21.4533 21.6271 21.6683 21.9481 21.6145C22.162 21.5608 22.376 21.3995 22.4295 21.1307C22.4295 20.9694 22.3225 20.8082 22.162 20.7006C22.269 20.6469 22.376 20.4856 22.376 20.3243C22.3225 20.0018 22.055 19.7867 21.7341 19.8405C21.5202 19.8943 21.3062 20.0555 21.2527 20.3243C21.2527 20.4856 21.3597 20.5931 21.4667 20.7006C21.3062 20.8082 21.1457 20.9694 21.1992 21.1307ZM21.7876 20.5394C21.6806 20.5394 21.6271 20.4856 21.6271 20.3781C21.6271 20.2706 21.6806 20.2168 21.7876 20.2168C21.8946 20.2168 21.9481 20.2706 21.9481 20.3781C21.9481 20.4319 21.8946 20.5394 21.7876 20.5394ZM21.7876 21.2382C21.6806 21.2382 21.6271 21.1845 21.6271 21.077C21.6271 20.9694 21.6806 20.9157 21.7876 20.9157C21.8946 20.9157 21.9481 20.9694 21.9481 21.077C21.9481 21.1845 21.8946 21.2382 21.7876 21.2382C21.7876 21.292 21.7876 21.292 21.7876 21.2382Z" fill="black"/>
<path d="M24.1411 19.9481L23.8202 20.3782C23.6597 20.5394 23.5527 20.8082 23.5527 21.0233C23.5527 21.1845 23.6597 21.3458 23.7667 21.4533C23.9272 21.5608 24.0876 21.6146 24.2481 21.6146C24.569 21.6684 24.89 21.3996 24.9435 21.0233V20.9695C24.9435 20.647 24.7295 20.4319 24.4621 20.3782C24.4621 20.3782 24.4621 20.3782 24.4086 20.3782C24.3551 20.3782 24.3016 20.3782 24.2481 20.3782L24.676 19.8406L24.1411 19.9481ZM24.1946 20.8082C24.3016 20.8082 24.4086 20.9695 24.4086 21.077C24.4086 21.1845 24.3016 21.2383 24.1946 21.2921C24.0876 21.2921 23.9272 21.2383 23.9272 21.077C23.9272 20.9695 23.9807 20.8082 24.1411 20.8082H24.1946Z" fill="black"/>
<path d="M25.96 21.1307C26.0135 21.4533 26.3879 21.6683 26.7088 21.6145C26.9228 21.5608 27.1367 21.3995 27.1902 21.1307C27.1902 20.9694 27.0832 20.8082 26.9228 20.7006C27.0298 20.6469 27.1367 20.4856 27.1367 20.3243C27.0832 20.0018 26.8158 19.7867 26.4949 19.8405C26.2809 19.8943 26.0669 20.0555 26.0134 20.3243C26.0134 20.4856 26.1204 20.5931 26.2274 20.7006C26.0669 20.7544 25.96 20.9694 25.96 21.1307ZM26.5483 20.5394C26.4414 20.5394 26.3879 20.4856 26.3879 20.3781C26.3879 20.2706 26.4414 20.2168 26.5483 20.2168C26.6553 20.2168 26.7088 20.2706 26.7088 20.3781C26.7088 20.4319 26.6553 20.5394 26.5483 20.5394C26.6018 20.5394 26.6018 20.5394 26.5483 20.5394ZM26.5483 21.2382C26.4414 21.2382 26.3879 21.1845 26.3879 21.077C26.3879 20.9694 26.4414 20.9157 26.5483 20.9157C26.6553 20.9157 26.7088 20.9694 26.7088 21.077C26.7623 21.1845 26.7088 21.2382 26.5483 21.2382C26.6018 21.292 26.6018 21.292 26.5483 21.2382Z" fill="black"/>
</svg>
