<svg width="129" height="41" viewBox="0 0 129 41" fill="none" xmlns="http://www.w3.org/2000/svg">
<g clip-path="url(#clip0_228_36951)">
<path d="M31.2695 14.35C31.1147 13.1713 30.7535 12.0438 30.2375 11.0188C29.8763 10.3013 29.4119 9.63504 28.7927 9.12254C28.0187 8.45629 27.0383 8.09754 26.0063 8.09754C25.5419 8.09754 25.0775 8.14879 24.6131 8.30254L25.9547 5.43254L26.1095 5.07379L25.7999 4.92004L23.1683 3.07504L23.0651 2.97254H20.8463C20.3819 2.87004 19.9175 2.66504 19.5563 2.35754C18.3179 1.38379 16.8215 0.871292 15.2219 0.871292C13.6223 0.820042 12.0743 1.33254 10.8359 2.40879L6.29514 6.81629L6.19194 6.91879L3.56034 9.48129C3.09594 9.94254 2.73474 10.455 2.47674 11.07C1.96074 12.1463 1.59954 13.2225 1.44474 14.4013C0.928742 17.1175 1.03194 19.885 1.70274 22.55C2.47674 25.3688 3.81834 27.9825 5.62434 30.2888C8.15274 33.4663 11.3519 36.1313 14.9639 38.1813L16.0991 38.8475L16.3571 39.0013L16.6151 38.8475L17.7503 38.1813C21.3623 36.1313 24.5099 33.415 27.1415 30.2375C28.9475 27.9313 30.2891 25.3175 31.0631 22.4988C31.6307 19.8338 31.7339 17.0663 31.2695 14.35Z" fill="white"/>
<path d="M14.1383 11.3774H10.0619L9.70068 17.4762C9.90708 17.5274 10.1651 17.5787 10.3715 17.6812L14.1383 11.3774Z" fill="black"/>
<path d="M10.9908 25.215L10.9392 25.7275L11.1456 25.83C11.5584 25.9837 11.9712 26.0862 12.4356 26.035C12.9 26.035 13.3644 25.9837 13.7772 25.7787V25.2662C13.3644 25.4712 12.9 25.5737 12.4356 25.5737C12.0228 25.5737 11.5584 25.4712 11.1456 25.3175L10.9908 25.215Z" fill="black"/>
<path d="M11.1456 27.1113L10.9908 27.0088H10.9392V27.5213L11.1456 27.6238C11.5584 27.7775 11.9712 27.88 12.4356 27.8288C12.7968 27.8288 13.158 27.7775 13.4676 27.675V27.2138C13.158 27.3163 12.7968 27.3675 12.4356 27.3675C11.9712 27.4188 11.5068 27.3163 11.1456 27.1113Z" fill="black"/>
<path d="M11.1456 28.905L10.9908 28.8025H10.9392V29.315L11.1456 29.4175C11.5584 29.5712 11.9712 29.6225 12.384 29.6225C12.5904 29.6225 12.7968 29.6225 13.0032 29.5712V29.11C12.7968 29.1612 12.5904 29.1612 12.384 29.1612C11.9712 29.2125 11.5068 29.11 11.1456 28.905Z" fill="black"/>
<path d="M15.7379 2.97251C16.0991 3.02376 16.4087 3.1775 16.7183 3.33125C17.0279 3.485 17.3375 3.69 17.5955 3.895C18.0083 4.25375 18.4727 4.56125 18.9371 4.8175V4.04875C18.5759 3.84376 18.2663 3.63875 17.9051 3.43375C17.5955 3.22875 17.2343 3.075 16.9247 2.92125C16.5635 2.7675 16.2023 2.665 15.8411 2.61375C15.4799 2.5625 15.1187 2.5625 14.7059 2.61375H14.6543V2.92125H14.7059C15.0155 2.87 15.3767 2.92126 15.7379 2.97251Z" fill="black"/>
<path d="M30.8053 14.4525C30.6505 13.325 30.2893 12.2487 29.8249 11.2237C29.5153 10.5575 29.0509 9.94246 28.4833 9.48121C27.8125 8.91746 26.8837 8.55871 26.0065 8.55871C24.8197 8.55871 23.6845 9.01996 22.8589 9.83996L21.5173 8.40496L21.7237 7.94371H23.5813L23.3749 8.40496H24.0973L25.5421 5.27871L22.9105 3.43371H20.8465C20.2789 3.33121 19.7113 3.07496 19.2985 2.71621C18.1633 1.79371 16.7185 1.28121 15.2221 1.28121C13.7257 1.17871 12.2809 1.69121 11.1457 2.66496L6.45007 7.22621L3.81847 9.78871C3.40567 10.1987 3.04447 10.7112 2.78647 11.2237C2.32207 12.2487 1.96087 13.325 1.80607 14.4525C1.29007 17.0662 1.39327 19.7825 2.06407 22.3962C2.83807 25.1637 4.12807 27.7262 5.93407 29.9812C8.51407 33.1587 11.6617 35.8237 15.2221 37.8225L16.3573 38.4887L17.4925 37.8225C21.0529 35.7725 24.2005 33.1075 26.7805 29.9812C28.5349 27.7262 29.8249 25.1637 30.5989 22.3962C31.2181 19.7825 31.3213 17.0662 30.8053 14.4525ZM11.5585 3.12621C11.8681 2.81871 12.9001 1.89621 15.1705 1.89621C16.5121 1.89621 17.8537 2.35746 18.8857 3.22871C19.5565 3.68996 20.1241 4.04871 20.8465 4.04871H22.7041L24.7681 5.48371L23.9425 7.27746H22.0849C21.8269 7.27746 21.5689 7.17496 21.3625 6.96996C21.1045 6.71371 20.9497 6.40621 20.8981 6.04746H20.5885C20.5885 6.25246 20.5885 6.50871 20.6917 6.71371C20.7433 6.91871 20.8981 7.12371 21.0529 7.32871C21.1045 7.43121 21.2077 7.48246 21.3109 7.53371L20.8465 8.50746L22.0849 9.83996H21.1561L19.5049 8.45621H19.1437L20.3305 9.83996H17.9053L16.5121 8.45621H15.6865C15.8413 8.09746 15.9445 7.68746 15.9445 7.27746C15.9445 7.22621 15.9445 7.12371 15.9445 7.07246V6.86746V6.76496V6.66246L15.8929 6.45746C15.8413 6.14996 15.7381 5.89371 15.5833 5.63746C15.4285 5.38121 15.2737 5.12496 15.0673 4.91996L15.0157 4.86871L14.9125 4.81746L14.7577 4.66371C14.6545 4.56121 14.4997 4.50996 14.3965 4.40746C13.8805 4.09996 13.4161 3.94621 12.9517 3.89496C12.8485 3.89496 12.6937 3.89496 12.5389 3.89496V4.20246C13.0549 4.20246 13.5709 4.35621 13.9837 4.66371C14.0869 4.71496 14.1901 4.81746 14.2933 4.86871L14.4481 5.02246L14.4997 5.07371L14.5513 5.12496C14.7061 5.32996 14.8609 5.53496 14.9641 5.73996C15.0673 5.94496 15.1705 6.20121 15.2221 6.45746V6.66246V6.76496V7.07246C15.2221 7.12371 15.2221 7.17496 15.2221 7.27746C15.1705 7.78996 15.0157 8.25121 14.7061 8.60996L14.3449 9.12246H16.0993L16.8733 9.89121H9.64927V7.22621H7.32727L11.5585 3.12621ZM8.30767 12.4025C8.04967 13.3762 7.22407 14.0937 6.24367 14.1962H5.98567C4.74727 14.1962 3.66367 13.2225 3.56047 11.9925C3.56047 11.9412 3.56047 11.89 3.56047 11.8387C3.56047 11.1725 3.81847 10.5575 4.33447 10.0962L6.65647 7.84121H8.97847V10.0962L8.30767 12.4025ZM29.9281 22.2425C29.4637 23.8312 28.8445 25.42 28.0189 26.855L27.8641 27.06L27.7609 27.2137L27.6061 27.4187L27.5029 27.675L27.3997 27.88L27.1417 28.2387L27.0385 28.3925L26.8321 28.6487L26.7289 28.8025L26.5225 29.0587L26.4193 29.1612L26.1097 29.5712L25.8517 29.93C24.7681 31.2625 23.5297 32.5437 22.1881 33.6712C21.1045 34.5937 20.0209 35.4137 18.8341 36.1825C18.2665 36.5412 17.6473 36.9512 17.0281 37.31L16.2541 37.7712L15.4801 37.31C12.0229 35.3112 8.92687 32.6975 6.39847 29.6225L6.19207 29.3662L6.08887 29.2125L5.88247 28.905L5.77927 28.7L5.52127 28.3412L5.46967 28.29L5.21167 27.88C4.07647 26.1375 3.19927 24.2412 2.68327 22.2425C2.06407 19.7312 1.96087 17.1175 2.42527 14.555C2.52847 13.7862 2.73487 13.0175 2.99287 12.3C3.04447 12.7612 3.25087 13.2225 3.50887 13.5812C3.40567 13.94 3.35407 14.2987 3.25087 14.7087C3.14767 15.3237 3.04447 15.99 3.04447 16.605L7.27567 18.5525C7.32727 18.45 7.43047 18.3475 7.53367 18.245C7.58527 18.1937 7.68847 18.0912 7.74007 18.04L5.16007 14.7087C5.62447 14.8112 6.08887 14.8625 6.55327 14.76L8.30767 17.63C8.51407 17.5275 8.72047 17.4762 8.97847 17.425L8.72047 13.12C8.82367 12.915 8.87527 12.7612 8.92687 12.5562L9.54607 10.5062V10.455H23.1685L23.2717 10.3525C23.9941 9.58371 24.9745 9.17371 26.0065 9.22496C26.7805 9.22496 27.5029 9.48121 28.0705 9.99371C28.5865 10.4037 28.9477 10.9675 29.2573 11.5312C29.7217 12.505 30.0313 13.53 30.1861 14.555C30.6505 17.1175 30.5473 19.7312 29.9281 22.2425Z" fill="black"/>
<path d="M22.8072 5.68869C23.0067 5.68869 23.1684 5.52807 23.1684 5.32994C23.1684 5.13181 23.0067 4.97119 22.8072 4.97119C22.6078 4.97119 22.446 5.13181 22.446 5.32994C22.446 5.52807 22.6078 5.68869 22.8072 5.68869Z" fill="black"/>
<path d="M20.8465 5.53495C20.8981 5.2787 21.1045 5.0737 21.3625 5.02245V4.6637H20.5369V5.53495H20.8465Z" fill="black"/>
<path d="M29.3089 14.7088C28.9477 12.6075 28.0705 10.0963 26.0065 10.0963C25.0261 10.045 24.0973 10.5575 23.6329 11.3775H16.0993L10.9393 18.04C10.9909 18.0913 11.0425 18.1425 11.1457 18.1938C11.2489 18.2963 11.3521 18.45 11.4037 18.5525L15.1189 16.8613L14.8093 18.1938L11.7133 19.1675C11.7649 19.3725 11.8165 19.6288 11.8165 19.885C11.7133 19.885 11.6101 19.8338 11.5069 19.7825C11.4037 19.7313 11.3005 19.68 11.1973 19.68L11.0425 19.6288L10.7329 19.475C10.4749 19.3725 10.2169 19.27 9.95892 19.27H9.80412H9.59772H9.08172H8.87532H8.72052C8.46252 19.3213 8.20452 19.3725 7.94652 19.475L7.63692 19.6288L7.48212 19.68C7.37892 19.7313 7.27572 19.7825 7.17252 19.7825C7.06932 19.8338 6.96612 19.8338 6.86292 19.885C6.86292 19.6288 6.91452 19.3725 6.96612 19.1675L2.99292 17.8863C2.99292 18.3475 2.99292 18.8088 3.04452 19.27C3.04452 19.3213 3.04452 19.3725 3.04452 19.4238C3.04452 19.475 3.04452 19.6288 3.04452 19.7313C3.04452 19.7825 3.04452 19.885 3.04452 19.9363H3.45732L3.71532 19.9875C3.97332 20.0388 4.28292 20.1413 4.48932 20.295C5.00532 20.5513 5.57292 20.705 6.14052 20.705C6.70812 20.705 7.27572 20.6025 7.79172 20.295C7.89492 20.2438 8.04972 20.1925 8.15292 20.1413C8.41092 20.0388 8.72052 19.9875 9.03012 19.9875H9.39132C9.64932 19.9875 9.95892 20.0388 10.2169 20.1413C10.3717 20.1925 10.4749 20.2438 10.6297 20.295C11.1457 20.5513 11.7133 20.705 12.2809 20.705C12.8485 20.705 13.4161 20.6025 13.9321 20.295L14.1901 20.1925L14.0353 20.8075L14.6029 20.705L14.4481 21.3713C14.1385 21.4225 13.8805 21.525 13.6225 21.6788C13.1581 21.935 12.6937 22.0375 12.1777 22.0375C11.6617 22.0375 11.1973 21.935 10.7329 21.6788C10.2169 21.4225 9.64932 21.2688 9.08172 21.2688C8.51412 21.2688 7.94652 21.3713 7.43052 21.6788C6.96612 21.935 6.50172 22.0375 5.98572 22.0375C5.46972 22.0375 5.00532 21.935 4.54092 21.6788C4.28292 21.525 4.02492 21.4225 3.71532 21.3713H3.92172H3.87012H3.76692H3.71532C3.56052 21.3713 3.45732 21.32 3.30252 21.32C3.35412 21.4738 3.35412 21.6275 3.40572 21.7813H3.66372H3.76692H3.81852L3.97332 21.8325L4.12812 21.8838C4.28292 21.935 4.48932 22.0375 4.64412 22.0888C5.16012 22.345 5.72772 22.4988 6.29532 22.4988C6.86292 22.4988 7.43052 22.3963 7.94652 22.0888C8.41092 21.8325 8.87532 21.73 9.39132 21.73C9.90732 21.73 10.3717 21.8325 10.8361 22.0888C11.3521 22.345 11.9197 22.4988 12.4873 22.4988C13.0549 22.4988 13.6225 22.3963 14.1385 22.0888C14.2933 21.9863 14.4997 21.935 14.6545 21.8838L14.3449 23.2163C14.1901 23.2675 14.0353 23.37 13.8805 23.4213C13.4677 23.6775 12.9517 23.78 12.4873 23.78C12.0229 23.78 11.5069 23.6775 11.0941 23.4213C10.5781 23.165 10.0105 23.0113 9.44292 23.0113C8.87532 23.0113 8.30772 23.1138 7.79172 23.4213C7.22412 23.575 6.70812 23.6775 6.24372 23.6775C5.77932 23.6775 5.26332 23.575 4.85052 23.3188L4.54092 23.165C4.33452 23.0625 4.07652 23.0113 3.87012 22.96C3.97332 23.2163 4.02492 23.4213 4.12812 23.6775C4.54092 24.7025 5.00532 25.6763 5.57292 26.65L5.62452 26.8038L5.72772 27.0088L5.83092 27.1625L5.93412 27.3675L6.03732 27.5213L6.14052 27.7263L6.24372 27.88L6.34692 28.0338L6.50172 28.2388L6.60492 28.3925L6.75972 28.5975L6.86292 28.7L7.12092 29.0588C9.59772 32.0313 12.5905 34.5938 15.9961 36.49L16.3057 36.695L16.6153 36.49C20.0209 34.5425 23.0137 32.0313 25.4389 29.0075C25.5937 28.8538 25.6969 28.6488 25.8517 28.495L25.9033 28.4438C26.0065 28.29 26.1613 28.085 26.2645 27.9313L26.3161 27.88C26.5741 27.5213 26.8321 27.1113 27.0385 26.7525C27.6577 25.7275 28.1221 24.7025 28.5349 23.6263C28.6381 23.4213 28.6897 23.2163 28.7413 23.0113C28.4833 23.0625 28.2769 23.1138 28.0705 23.2163H28.0189L27.7093 23.37C26.8321 23.8313 25.8001 23.8313 24.9229 23.37C23.8909 22.8575 22.6525 22.8575 21.5689 23.37C20.6917 23.8313 19.6597 23.8313 18.7825 23.37C18.6277 23.3188 18.4729 23.2163 18.3181 23.165L17.8021 20.705L18.4213 20.8075L18.0601 19.1675L20.0209 17.2713L21.3109 18.1938L23.3233 16.195L25.2841 18.245L26.5741 17.3225L28.8961 19.6288L29.4637 20.1925C29.4637 19.9875 29.5153 19.7825 29.5153 19.5775C29.5153 19.5263 29.5153 19.5263 29.5153 19.475C29.5153 19.4238 29.5153 19.3725 29.5153 19.3725C29.6185 17.7838 29.5669 16.2463 29.3089 14.7088ZM25.5421 15.0163L25.5937 14.9138H26.3161L26.5225 14.1963H26.6257L26.8321 14.8625H27.5545L27.6061 14.965L26.9869 15.375L27.1933 16.0925L27.0901 16.1438L26.4709 15.7338L25.8517 16.1438L25.7485 16.0925L25.9549 15.375L25.5421 15.0163ZM23.9941 14.9138L23.8909 14.965L23.2717 14.555L22.7041 14.965L22.6009 14.9138L22.8073 14.1963L22.1881 13.7863L22.2397 13.6838H22.9621L23.2201 12.9663H23.3233L23.5297 13.6838H24.2521L24.3037 13.7863L23.7361 14.2475L23.9941 14.9138ZM20.6401 16.1438L20.5369 16.195L19.9177 15.785L19.2985 16.195L19.1953 16.1438L19.4017 15.4263L18.7825 15.0163L18.8341 14.9138H19.5565L19.7629 14.1963H19.8661L20.0725 14.8625H20.7949L20.8465 14.965L20.2273 15.375L20.6401 16.1438ZM17.9569 24.3438L17.2345 24.19L18.2149 28.905L16.3057 28.1363L14.3965 28.905L15.3769 24.19L14.6545 24.3438L15.5833 19.8338L15.0157 19.9363L16.2025 13.6838H16.3057L17.5441 19.9363L16.9765 19.8338L17.9569 24.3438ZM16.6669 29.52L16.8217 33.9788H15.7381L15.8929 29.52V28.8025L16.2541 28.6488L16.6153 28.8025L16.6669 29.52ZM15.3769 30.8013V31.1088C15.0157 31.1088 14.6545 31.2113 14.3449 31.365C13.7773 31.6725 13.1065 31.8263 12.4357 31.8263C11.8165 31.8263 11.1457 31.7238 10.6297 31.4163L10.5781 31.365L10.3201 31.2625H10.2685C10.1653 31.2113 10.1137 31.2113 10.0105 31.16L10.2685 30.955L10.3201 30.9038C10.4749 30.955 10.5781 31.0063 10.7329 31.0575L10.8877 31.16C11.3521 31.365 11.8681 31.4675 12.3325 31.4675C12.9001 31.4675 13.4677 31.365 13.9837 31.0575C14.3965 30.8525 14.8609 30.6988 15.3253 30.6988L15.3769 30.8013ZM21.6721 31.1088L21.8269 31.0063C21.9301 30.955 22.0849 30.9038 22.2397 30.8525L22.6009 31.16C22.4977 31.2113 22.3945 31.2113 22.3429 31.2625L22.1881 31.365L22.1365 31.4163C21.5689 31.7238 20.9497 31.8263 20.3305 31.8263C19.6597 31.8263 18.9889 31.6725 18.4213 31.365C18.1117 31.2113 17.7505 31.1088 17.3893 31.1088V30.8013V30.6988C17.8537 30.6988 18.3181 30.8013 18.7309 31.0575C19.2469 31.3138 19.8145 31.4675 20.3821 31.4675C20.7433 31.4163 21.2077 31.3138 21.6721 31.1088ZM14.0869 23.8825L13.8289 25.1125L14.6029 24.9588L13.5193 29.9813L15.5317 29.0075L15.4801 29.6738L15.4285 30.2375C14.8609 30.2375 14.3449 30.34 13.8805 30.6475C13.4161 30.8525 12.9001 30.955 12.3841 30.955C11.9197 30.955 11.4553 30.8525 11.0425 30.6475L10.9393 30.5963C10.7845 30.545 10.6297 30.4425 10.4749 30.3913V24.2413L10.0621 24.6V30.545L9.64932 30.9038V24.3438L10.4233 23.7288H10.4749L10.6297 23.78L10.6813 23.8313C10.7845 23.8825 10.9393 23.9338 11.0941 23.985C11.5069 24.1388 11.9197 24.19 12.3841 24.19C13.0033 24.2925 13.5709 24.1388 14.0869 23.8825ZM18.5245 23.8825C19.0405 24.1388 19.6081 24.2925 20.1757 24.2925C20.5885 24.2925 21.0529 24.2413 21.4657 24.0875C21.6205 24.0363 21.7237 23.985 21.8785 23.9338L22.0849 23.8313H22.1365L22.9105 24.4463V30.955L22.4977 30.5963V24.6L22.0333 24.2413V30.4425C21.8785 30.4938 21.7237 30.545 21.5689 30.6475L21.4657 30.6988C21.0529 30.9038 20.5885 31.0063 20.1241 31.0063C19.6081 31.0063 19.1437 30.9038 18.6793 30.6475C18.2149 30.3913 17.6473 30.2375 17.1313 30.2375L17.0797 29.6738L17.0281 29.0075L19.0405 29.9813L18.8857 29.315L17.9569 24.9588L18.7309 25.1125L18.5245 23.8825Z" fill="black"/>
<path d="M21.4656 25.7787L21.672 25.6762V25.1637H21.6204L21.4656 25.2662C21.0528 25.4712 20.64 25.5224 20.1756 25.5224C19.7112 25.5224 19.2468 25.4199 18.834 25.2149V25.7274C19.6596 26.0349 20.5884 26.0862 21.4656 25.7787Z" fill="black"/>
<path d="M21.4656 27.1113C21.0528 27.3163 20.64 27.3675 20.1756 27.3675C19.8144 27.3675 19.4532 27.3163 19.1436 27.2138V27.675C19.4532 27.7775 19.8144 27.8288 20.1756 27.8288C20.5884 27.8288 21.0528 27.7775 21.4656 27.6238L21.672 27.5213V27.0088H21.6204L21.4656 27.1113Z" fill="black"/>
<path d="M21.4656 28.905C21.0528 29.11 20.64 29.1612 20.1756 29.1612C19.9692 29.1612 19.7628 29.1612 19.5564 29.11V29.5712C19.7628 29.6225 19.9692 29.6225 20.1756 29.6225C20.5884 29.6225 21.0528 29.5712 21.4656 29.4175L21.672 29.315V28.8025H21.6204L21.4656 28.905Z" fill="black"/>
<path d="M5.36646 12.4025L5.62446 12.6075L8.25605 9.01997V8.55872H7.84325L5.36646 12.4025Z" fill="black"/>
<path d="M20.2789 21.4225V19.885H19.6597V20.295H19.8661V21.4225H20.2789Z" fill="black"/>
<path d="M21.5687 21.0125C21.6719 21.32 21.9815 21.525 22.2911 21.4738C22.4975 21.4225 22.7039 21.2688 22.7555 21.0125C22.7555 20.8588 22.6523 20.705 22.4975 20.6025C22.6007 20.5513 22.7039 20.3975 22.7039 20.2438C22.6523 19.9363 22.3943 19.7313 22.0847 19.7825C21.8783 19.8338 21.6719 19.9875 21.6203 20.2438C21.6203 20.3975 21.7235 20.5 21.8267 20.6025C21.6719 20.705 21.5171 20.8588 21.5687 21.0125ZM22.1363 20.4488C22.0331 20.4488 21.9815 20.3975 21.9815 20.295C21.9815 20.1925 22.0331 20.1413 22.1363 20.1413C22.2395 20.1413 22.2911 20.1925 22.2911 20.295C22.2911 20.3463 22.2395 20.4488 22.1363 20.4488ZM22.1363 21.115C22.0331 21.115 21.9815 21.0638 21.9815 20.9613C21.9815 20.8588 22.0331 20.8075 22.1363 20.8075C22.2395 20.8075 22.2911 20.8588 22.2911 20.9613C22.2911 21.0638 22.2395 21.115 22.1363 21.115C22.1363 21.1663 22.1363 21.1663 22.1363 21.115Z" fill="black"/>
<path d="M24.4067 19.885L24.0971 20.295C23.9423 20.4487 23.8391 20.705 23.8391 20.91C23.8391 21.0637 23.9423 21.2175 24.0455 21.32C24.2003 21.4225 24.3551 21.4737 24.5099 21.4737C24.8195 21.525 25.1291 21.2687 25.1807 20.91V20.8587C25.1807 20.5512 24.9743 20.3462 24.7163 20.295C24.7163 20.295 24.7163 20.295 24.6647 20.295C24.6131 20.295 24.5615 20.295 24.5099 20.295L24.9227 19.7825L24.4067 19.885ZM24.4583 20.705C24.5615 20.705 24.6647 20.8587 24.6647 20.9612C24.6647 21.0637 24.5615 21.115 24.4583 21.1662C24.3551 21.1662 24.2003 21.115 24.2003 20.9612C24.2003 20.8587 24.2519 20.705 24.4067 20.705H24.4583Z" fill="black"/>
<path d="M26.1611 21.0125C26.2127 21.32 26.5739 21.525 26.8835 21.4738C27.0899 21.4225 27.2963 21.2688 27.3479 21.0125C27.3479 20.8588 27.2447 20.705 27.0899 20.6025C27.1931 20.5513 27.2963 20.3975 27.2963 20.2438C27.2447 19.9363 26.9867 19.7313 26.6771 19.7825C26.4707 19.8338 26.2643 19.9875 26.2127 20.2438C26.2127 20.3975 26.3159 20.5 26.4191 20.6025C26.2643 20.6538 26.1611 20.8588 26.1611 21.0125ZM26.7287 20.4488C26.6255 20.4488 26.5739 20.3975 26.5739 20.295C26.5739 20.1925 26.6255 20.1413 26.7287 20.1413C26.8319 20.1413 26.8835 20.1925 26.8835 20.295C26.8835 20.3463 26.8319 20.4488 26.7287 20.4488C26.7803 20.4488 26.7803 20.4488 26.7287 20.4488ZM26.7287 21.115C26.6255 21.115 26.5739 21.0638 26.5739 20.9613C26.5739 20.8588 26.6255 20.8075 26.7287 20.8075C26.8319 20.8075 26.8835 20.8588 26.8835 20.9613C26.9351 21.0638 26.8835 21.115 26.7287 21.115C26.7803 21.1663 26.7803 21.1663 26.7287 21.115Z" fill="black"/>
<path d="M34.7268 15.375C34.7268 11.8388 36.636 9.68628 40.0416 9.68628C43.4472 9.68628 45.3048 11.8388 45.3048 15.375C45.3048 18.9113 43.3956 21.0638 39.99 21.0638C36.5844 21.0638 34.7268 18.86 34.7268 15.375ZM42.5184 15.375C42.5184 11.89 41.7444 10.5575 40.0416 10.5575C38.3388 10.5575 37.5648 11.89 37.5648 15.375C37.5648 18.86 38.3388 20.1413 40.0416 20.1413C41.7444 20.1413 42.5184 18.8088 42.5184 15.375Z" fill="#D73F09"/>
<path d="M50.6712 20.2951L50.4132 20.8588H45.8208V20.3463L46.5948 19.9876V14.8626L45.8208 13.6326V13.4276L48.6588 12.5051H49.02L48.9684 14.4013H49.02C49.3812 13.4276 50.1552 12.5051 51.3936 12.5051C52.1676 12.4026 52.89 12.9663 52.9932 13.7863C52.9932 13.8376 52.9932 13.9401 52.9932 13.9913C53.0448 14.7088 52.5288 15.3238 51.8064 15.3751C51.7548 15.3751 51.7548 15.3751 51.7032 15.3751C51.0324 15.4263 50.4648 14.9138 50.4132 14.2476C50.4132 14.1963 50.4132 14.1451 50.4132 14.0938C49.8456 14.3501 49.3812 14.7601 49.02 15.2726V19.9363L50.6712 20.2951Z" fill="#D73F09"/>
<path d="M57.6372 19.475C58.3596 19.475 59.1336 19.2188 59.6496 18.7575L60.0108 19.1675C59.3916 20.5 58.2564 21.0638 56.6568 21.0638C54.4896 21.0638 52.8384 19.68 52.8384 16.9125C52.8384 14.145 54.7476 12.5563 57.0696 12.5563C58.9272 12.5563 60.2172 13.6325 60.2172 15.58C60.2172 15.9388 60.1656 16.2975 60.114 16.6563H55.212C55.2636 18.2963 56.0376 19.475 57.6372 19.475ZM55.2636 15.7338H57.9468C57.9984 15.5288 57.9984 15.2725 57.9984 15.0163C57.9984 14.145 57.7404 13.3763 56.8632 13.3763C55.986 13.3763 55.4184 14.145 55.2636 15.7338Z" fill="#D73F09"/>
<path d="M66.1513 19.2187C67.9573 19.2187 69.0925 20.09 69.0925 21.8837C69.0925 24.19 66.8221 25.01 64.3453 25.01C62.0233 25.01 60.3721 24.4975 60.3721 23.0625C60.3721 21.9862 61.1977 21.525 62.4877 21.32V21.2687C61.4041 21.1662 60.7849 20.5512 60.7849 19.5775C60.7849 18.6037 61.5073 18.04 62.5393 17.835C61.4557 17.5787 60.7333 16.605 60.7849 15.4775C60.7849 13.8375 62.0233 12.5562 64.3969 12.5562C65.4289 12.5562 66.4609 12.7612 67.3897 13.1712C67.2865 13.0175 67.2865 12.8637 67.2865 12.71C67.2865 12.1975 67.6993 11.7362 68.2153 11.7362C68.2669 11.7362 68.2669 11.7362 68.3185 11.7362C68.8861 11.7362 69.3505 12.1462 69.3505 12.71C69.3505 12.7612 69.3505 12.7612 69.3505 12.8125C69.4021 13.3762 68.9893 13.8887 68.4217 13.94C68.3701 13.94 68.2669 13.94 68.2153 13.94C67.6993 13.8887 67.1833 13.7862 66.7189 13.53V13.735C67.4413 14.0425 67.8541 14.76 67.8541 15.5287C67.8541 17.3225 66.0481 18.1425 64.3969 18.1425C63.9841 18.1425 63.6229 18.0912 63.2617 17.9887C62.8489 18.1425 62.5909 18.3475 62.5909 18.7575C62.5909 19.1675 62.7973 19.3212 63.2617 19.3212L66.1513 19.2187ZM62.3845 22.7037C62.3845 23.6775 63.1069 24.1387 64.3969 24.1387C65.8933 24.1387 67.0285 23.7287 67.0285 22.55C67.0285 21.8325 66.6673 21.4225 65.5321 21.4225H63.1585C62.6941 21.6787 62.3845 22.1912 62.3845 22.7037ZM64.3453 13.325C63.3649 13.325 63.2101 14.0425 63.2101 15.2725C63.2101 16.5025 63.3649 17.22 64.3453 17.22C65.3257 17.22 65.4805 16.5025 65.4805 15.2725C65.4805 14.0425 65.3257 13.325 64.3453 13.325Z" fill="#D73F09"/>
<path d="M72.8591 21.0638C70.3307 21.0638 68.6279 19.6288 68.6279 16.81C68.6279 13.9913 70.2791 12.5563 72.8591 12.5563C75.4391 12.5563 77.0903 13.9913 77.0903 16.81C77.0903 19.6288 75.4391 21.0638 72.8591 21.0638ZM72.8591 20.1925C74.0975 20.1925 74.4587 18.9625 74.4587 16.7588C74.4587 14.555 74.0975 13.3763 72.8591 13.3763C71.6207 13.3763 71.2595 14.6063 71.2595 16.7588C71.2595 18.9113 71.6207 20.1925 72.8591 20.1925Z" fill="#D73F09"/>
<path d="M86.9977 20.295L86.7397 20.8588H82.6117V20.3463L83.3857 19.9875V15.8875C83.3857 14.6575 82.7665 14.2475 82.0441 14.2475C81.4765 14.2475 80.9605 14.5038 80.5477 14.8625V19.9363L81.6829 20.295L81.4249 20.8588H77.2969V20.3463L78.0709 19.9875V14.8625L77.2969 13.6325V13.4275L80.1349 12.505H80.5477L80.4961 14.145H80.5477C81.1153 13.12 82.2505 12.505 83.4373 12.505C84.8305 12.505 85.8625 13.4788 85.8625 15.375V19.9363L86.9977 20.295Z" fill="#D73F09"/>
<path d="M94.5827 18.6038C94.5827 17.5788 94.0667 17.1175 92.8283 16.605L91.4867 16.0413C90.0935 15.58 89.1647 14.2475 89.2679 12.8125C89.2679 10.5575 91.0223 9.63501 92.8283 9.63501C93.6539 9.63501 94.4279 9.78876 95.2019 10.045L96.1307 9.63501L96.2855 12.7613L95.7695 12.8638L94.8407 11.685C94.4279 10.9163 93.6023 10.455 92.7251 10.5063C91.9511 10.455 91.2803 11.0188 91.2287 11.7875C91.2287 11.8388 91.2287 11.89 91.2287 11.9413C91.2287 12.8125 91.6415 13.325 92.7767 13.735L94.1699 14.2988C95.9243 15.0163 96.6983 15.99 96.6983 17.7325C96.6983 19.9875 94.9955 21.0638 92.9831 21.0638C92.1059 21.0638 91.1771 20.8588 90.4031 20.4488L89.3711 21.0638L89.0615 17.5275L89.6291 17.425L90.5579 18.7575C91.1771 19.7313 91.8995 20.1925 92.9315 20.1925C93.7055 20.2438 94.4279 19.68 94.5311 18.9113C94.5827 18.8088 94.5827 18.7063 94.5827 18.6038Z" fill="#D73F09"/>
<path d="M96.9048 13.0687L99.8976 10.5062H100.465V12.71H102.942L102.787 13.6837H100.465V18.0912C100.465 19.1675 100.878 19.5775 101.652 19.5775C102.168 19.5775 102.632 19.4237 103.045 19.1675L103.252 19.6287C102.632 20.5512 101.6 21.0637 100.517 21.0125C99.0204 21.0125 98.04 20.295 98.04 18.3475V13.6325H96.9048V13.0687Z" fill="#D73F09"/>
<path d="M110.372 19.065C110.372 19.885 110.682 20.09 111.559 19.9875L111.611 20.3462C111.095 20.8075 110.372 21.0637 109.65 21.0125C108.824 21.0125 108.154 20.6537 107.999 19.8337H107.947C107.534 20.6537 106.709 21.0637 105.677 21.0637C104.438 21.0637 103.355 20.3975 103.355 18.8087C103.355 17.1687 104.696 16.3487 106.76 16.3487C107.122 16.3487 107.534 16.4 107.896 16.5025V15.785C107.896 14.7087 107.173 14.145 106.09 14.145C105.316 14.145 104.542 14.35 103.819 14.7087L103.613 14.145C104.49 13.0175 105.832 12.4025 107.276 12.505C108.824 12.505 110.372 13.2225 110.372 15.4775V19.065ZM107.483 17.22C106.348 17.22 105.728 17.4762 105.728 18.5012C105.677 19.065 106.038 19.5775 106.606 19.68C106.657 19.68 106.709 19.68 106.812 19.68C107.225 19.68 107.586 19.5775 107.896 19.27V17.22H107.483Z" fill="#D73F09"/>
<path d="M110.734 13.0687L113.726 10.5062H114.294V12.71H116.771L116.616 13.6837H114.294V18.0912C114.294 19.1675 114.707 19.5775 115.481 19.5775C115.997 19.5775 116.461 19.4237 116.874 19.1675L117.08 19.6287C116.461 20.5512 115.429 21.0637 114.346 21.0125C112.849 21.0125 111.869 20.295 111.869 18.3475V13.6325H110.734V13.0687Z" fill="#D73F09"/>
<path d="M121.724 19.475C122.447 19.475 123.221 19.2188 123.737 18.7575L124.098 19.1675C123.479 20.5 122.344 21.0638 120.744 21.0638C118.577 21.0638 116.926 19.68 116.926 16.9125C116.926 14.145 118.835 12.5563 121.105 12.5563C122.963 12.5563 124.253 13.6325 124.253 15.58C124.253 15.9388 124.201 16.2975 124.15 16.6563H119.299C119.351 18.2963 120.125 19.475 121.724 19.475ZM119.351 15.7338H121.982C122.034 15.5288 122.034 15.2725 122.034 15.0163C122.034 14.145 121.776 13.3763 120.899 13.3763C120.022 13.3763 119.506 14.145 119.351 15.7338Z" fill="#D73F09"/>
<path d="M44.3244 31.9287C44.3244 34.645 42.5184 36.0287 40.0932 36.0287C37.5648 36.0287 35.8104 35.0037 35.8104 32.1337V25.8812L34.4172 25.4712L34.572 24.8562H38.8032L38.958 25.4712L37.5648 25.8812V31.8775C37.5648 34.03 38.4936 35.0037 40.2996 35.0037C42.1056 35.0037 43.2408 34.03 43.2408 31.7237V25.8812L41.796 25.4712L41.9508 24.8562H45.5628L45.7176 25.4712L44.3244 25.8812V31.9287Z" fill="black"/>
<path d="M54.1799 35.3112L53.9735 35.875H50.3615V35.3625L51.2387 35.055V30.4425C51.2387 29.2637 50.4647 29.0075 49.8455 29.0075C49.1231 29.0075 48.4523 29.2637 47.8847 29.725V34.9525L49.2263 35.3112L48.9683 35.875H45.3563V35.3625L46.2335 35.055V29.6225L45.3047 28.5975V28.3925L47.5751 27.5212H47.8847L47.8331 29.11H47.9363C48.5039 28.1362 49.5359 27.5212 50.6711 27.5212C51.7547 27.5212 52.8899 28.1875 52.8899 30.0837V34.9525L54.1799 35.3112Z" fill="black"/>
<path d="M58.2563 35.3112L57.9983 35.8749H54.3863V35.3624L55.2635 35.0549V29.6224L54.3347 28.5974V28.3924L56.6051 27.5212H56.9147V35.0037L58.2563 35.3112ZM56.0891 23.8824C56.7083 23.8824 57.2759 24.3949 57.2759 25.0612C57.2759 25.6762 56.7599 26.2399 56.0891 26.2399C55.4699 26.2399 54.9023 25.7274 54.9023 25.0612C54.9023 24.4462 55.4183 23.9337 56.0891 23.8824Z" fill="black"/>
<path d="M63.9839 28.6488L62.7455 28.2388L62.8487 27.675H65.8931L65.9963 28.2388L65.1191 28.5975L62.2811 35.875H61.3523L58.3595 28.7L57.5339 28.1875L57.6887 27.675H61.1459L61.3007 28.2388L60.1139 28.5463L61.4555 31.8263C61.7651 32.5438 61.9715 33.3125 62.1263 34.0813H62.2295C62.3843 33.3125 62.6423 32.5438 62.9003 31.775L63.9839 28.6488Z" fill="black"/>
<path d="M69.5567 34.85C70.3823 34.85 71.2079 34.5937 71.8787 34.0812L72.1367 34.4912C71.4659 35.5162 70.2791 36.1312 69.0407 36.0287C67.0283 36.0287 65.4287 34.645 65.4287 31.8262C65.4287 29.0075 67.1831 27.47 69.2987 27.47C71.0015 27.47 72.2399 28.495 72.2399 30.3912C72.2399 30.6987 72.1883 31.0575 72.1367 31.365H67.0283C67.0283 33.5687 68.0087 34.85 69.5567 34.85ZM67.0799 30.6475H70.5371C70.5371 30.4937 70.5371 30.2887 70.5371 30.135C70.5371 28.9562 70.0727 28.3412 69.0923 28.3412C68.1119 28.3412 67.3379 29.0587 67.0799 30.6475Z" fill="black"/>
<path d="M76.7808 35.3112L76.5228 35.875H72.5496V35.3625L73.4268 35.055V29.6225L72.498 28.5975V28.3925L74.7684 27.5212H75.078L75.0264 29.4687H75.078C75.5424 28.4437 76.4196 27.5212 77.4516 27.5212C78.3288 27.5212 78.8448 28.0337 78.8448 28.7512C78.8964 29.315 78.4836 29.8275 77.8644 29.8787C77.8128 29.8787 77.7612 29.8787 77.7612 29.8787C77.1936 29.93 76.7292 29.4687 76.6776 28.905C76.6776 28.8537 76.6776 28.8025 76.6776 28.7512C76.0068 29.11 75.4392 29.6225 75.078 30.2887V35.055L76.7808 35.3112Z" fill="black"/>
<path d="M79.3609 33.21C80.1349 34.9012 80.9089 35.3112 81.8893 35.3112C82.7149 35.3112 83.2825 35.0037 83.2825 34.1325C83.2825 33.415 82.8697 33.005 81.9409 32.6975L80.8573 32.3387C79.7221 31.9287 78.9997 31.2625 78.9997 29.8787C78.9997 28.29 80.1865 27.5212 81.7345 27.5212C82.2505 27.5212 82.7665 27.675 83.2309 27.88L84.1597 27.5725L84.3145 29.9812L83.9017 30.135C83.0761 28.7512 82.4053 28.3412 81.6313 28.3412C81.0121 28.2387 80.4445 28.7 80.3413 29.315C80.3413 29.3662 80.3413 29.4175 80.3413 29.4687C80.3413 30.135 80.7025 30.5962 81.5797 30.9037L82.6633 31.2625C83.9017 31.6725 84.6757 32.3387 84.6757 33.7737C84.6757 35.4137 83.4373 36.1312 81.7345 36.1312C81.0637 36.1312 80.4445 35.9775 79.8769 35.7212L79.0513 36.1312L78.8965 33.415L79.3609 33.21Z" fill="black"/>
<path d="M89.01 35.3112L88.752 35.8749H85.14V35.3624L86.0172 35.0549V29.6224L85.0884 28.5974V28.3924L87.3588 27.5212H87.6684V35.0037L89.01 35.3112ZM86.8428 23.8824C87.462 23.8824 88.0296 24.3949 87.978 25.0612C87.978 25.6762 87.462 26.2399 86.7912 26.1887C86.172 26.1887 85.656 25.6762 85.656 25.0612C85.656 24.4462 86.172 23.9337 86.8428 23.8824C86.7912 23.8824 86.7912 23.8824 86.8428 23.8824Z" fill="black"/>
<path d="M88.4425 28.085L90.8161 25.5225H91.1773V27.7262H93.9121L93.7573 28.5975H91.1257V33.4662C91.1257 34.4912 91.5901 34.9525 92.3641 34.9525C92.8801 34.9525 93.4477 34.7987 93.9121 34.5425L94.1185 35.0037C93.4477 35.7212 92.5189 36.08 91.5385 36.0287C90.3001 36.0287 89.4745 35.3625 89.4745 33.7225V28.5975H88.3909L88.4425 28.085Z" fill="black"/>
<path d="M93.912 28.7L93.0864 28.1875L93.2412 27.675H96.75L96.9048 28.2388L95.718 28.5463L97.0596 32.0825C97.3692 32.8513 97.5756 33.6713 97.6788 34.44H97.7304C97.7304 34.44 98.04 33.2613 98.4528 32.0313L99.588 28.5975L98.3496 28.1875L98.4528 27.6238H101.446L101.549 28.1875L100.672 28.5463L98.04 35.7213C96.8532 38.8988 95.8728 39.9238 94.3248 39.9238C93.3444 39.9238 92.8284 39.36 92.8284 38.6425C92.7768 38.0788 93.2412 37.5663 93.8088 37.5663C93.8604 37.5663 93.8604 37.5663 93.912 37.5663C94.428 37.5663 94.8408 37.925 94.8924 38.4375C94.8924 38.4888 94.8924 38.4888 94.8924 38.54C94.8924 38.745 94.8408 39.0013 94.686 39.155C95.46 39.155 96.4404 37.7713 96.9564 36.1825L93.912 28.7Z" fill="black"/>
</g>
<defs>
<clipPath id="clip0_228_36951">
<rect width="129" height="41" fill="white"/>
</clipPath>
</defs>
</svg>
