<svg width="24" height="24" viewBox="0 0 24 24" fill="none" xmlns="http://www.w3.org/2000/svg">
<path opacity="0.5" d="M18 18.8598H17.24C16.44 18.8598 15.68 19.1698 15.12 19.7298L13.41 21.4198C12.63 22.1898 11.36 22.1898 10.58 21.4198L8.87 19.7298C8.31 19.1698 7.54 18.8598 6.75 18.8598H6C4.34 18.8598 3 17.5298 3 15.8898V4.97977C3 3.33977 4.34 2.00977 6 2.00977H18C19.66 2.00977 21 3.33977 21 4.97977V15.8898C21 17.5198 19.66 18.8598 18 18.8598Z" fill="white" stroke="white" stroke-width="1.5" stroke-miterlimit="10" stroke-linecap="round" stroke-linejoin="round"/>
<path d="M7 9.15912C7 8.22912 7.76 7.46912 8.69 7.46912C9.62 7.46912 10.38 8.22912 10.38 9.15912C10.38 11.0391 7.71 11.2391 7.12 13.0291C7 13.3991 7.31 13.7691 7.7 13.7691H10.38M16.04 13.7591V8.04912C16.0405 7.92277 15.9998 7.7997 15.924 7.69862C15.8482 7.59754 15.7414 7.52398 15.62 7.48912C15.4977 7.45459 15.3676 7.46024 15.2488 7.50525C15.1299 7.55026 15.0287 7.63224 14.96 7.73912C14.24 8.89912 13.46 10.2191 12.78 11.3791C12.67 11.5691 12.67 11.8191 12.78 12.0091C12.89 12.1991 13.1 12.3191 13.33 12.3191H17" stroke="white" stroke-width="1.5" stroke-linecap="round" stroke-linejoin="round"/>
</svg>
